<?xml version="1.0" encoding="UTF-8"?>
<svg width="40px" height="85px" viewBox="0 0 40 85" version="1.1" xmlns="http://www.w3.org/2000/svg" xmlns:xlink="http://www.w3.org/1999/xlink">
    <!-- Generator: Sketch 49 (51002) - http://www.bohemiancoding.com/sketch -->
    <title>Group 9</title>
    <desc>Created with Sketch.</desc>
    <defs></defs>
    <g id="chame-UI" stroke="none" stroke-width="1" fill="none" fill-rule="evenodd">
        <g id="1.1-ChaMe-Home" transform="translate(-860.000000, -1308.000000)" fill-rule="nonzero">
            <g id="Group-9" transform="translate(860.000000, 1308.000000)">
                <g id="baby" fill="#01B2FF">
                    <path d="M27,7.65848598 C27,7.21534965 26.8274439,6.79856859 26.5141164,6.48514005 C25.8674715,5.83836327 24.8151322,5.83821004 24.1682575,6.48514005 C23.9439269,6.70954293 23.9439269,7.07330699 24.1681809,7.29763326 C24.3925115,7.52211276 24.7561583,7.52203615 24.9804888,7.29770988 C25.1793151,7.09866628 25.502829,7.09874289 25.7017319,7.29763326 C25.7980814,7.3940905 25.8511579,7.52218938 25.8511579,7.65848598 C25.8511579,7.79470596 25.7980814,7.92280485 25.7017319,8.01918546 C25.4774013,8.24358835 25.4774013,8.60735241 25.7017319,8.83167868 C25.8139355,8.94391843 25.9609106,9 26.1079624,9 C26.2549376,9 26.4019894,8.94391843 26.5141164,8.83175529 C26.8273673,8.51832675 27,8.10169892 27,7.65848598 Z" id="Shape"></path>
                    <path d="M39.0270917,16.5550781 C39.5927923,15.1514062 39.8979471,13.6453906 39.9150564,12.0978906 C39.9487281,9.053125 38.86678,6.19125 36.8568674,3.97453125 C37.4529584,3.40984375 38.1805331,2.99179688 38.9698264,2.7625 C39.2806062,2.67226563 39.4593554,2.3471875 39.3690433,2.03648438 C39.2788093,1.72570313 38.9536546,1.54695313 38.643031,1.63726563 C37.664598,1.92148438 36.7637428,2.44226563 36.0282774,3.14609375 C32.5638403,0.00625 27.6527691,-0.70875 23.4509135,0.9775 C22.6510734,0.3440625 21.6679529,0 20.6381139,0 C20.6152234,0 20.5922547,0.00015625 20.5694423,0.00046875 C19.3828072,0.018125 18.2669529,0.490078125 17.4276599,1.32945312 C16.0008696,2.75625 15.7063397,4.89421875 16.5988356,6.61710938 C16.2447747,6.60085937 15.8829014,6.65421875 15.5331374,6.78554688 C12.9113526,7.76953125 9.07965148,10.35375 6.80997443,12.66875 C5.56271455,13.9407813 4.90568632,15.6950781 5.00724836,17.4817969 C5.03709197,18.00625 5.08685736,18.5885938 5.15443518,19.2160156 C3.61850475,20.6385156 2.2280424,22.4342969 1.31343724,24.1857031 C0.706721278,25.3476562 -0.206321394,27.5115625 0.495784749,28.9491406 C0.498519112,28.9547656 0.501409723,28.960625 0.504300335,28.9665625 C-0.596241474,31.9654687 0.13398954,35.3205469 2.40671345,37.5932031 C3.97944059,39.1659375 6.07005596,40.0001562 8.20278052,40 C9.15183865,40 10.1094124,39.8340625 11.0329237,39.4952344 C11.0387831,39.4982031 11.0447987,39.5014063 11.050658,39.5042187 C11.3944846,39.6721094 11.8049514,39.7546875 12.2703399,39.7546875 C13.4273658,39.7546875 14.9225933,39.2441406 16.5686795,38.2650781 C18.0918756,37.3590625 19.5741344,36.1477344 20.7814726,34.8459375 C21.4112353,34.9135938 21.9943577,34.9629688 22.5180271,34.9928125 C22.6386516,34.9996875 22.7589635,35.0030469 22.8791973,35.0030469 C24.5391897,35.0030469 26.1448854,34.3532031 27.33113,33.1901563 C28.6579207,31.8892188 30.1111172,30.0440625 31.3182991,28.1276563 C31.4907983,27.8539062 31.4086112,27.4921875 31.1348625,27.3196875 C30.8610356,27.1471875 30.4993185,27.2292969 30.3268974,27.5032031 C29.1661996,29.3457031 27.7753467,31.1135156 26.5108212,32.3534375 C25.4737166,33.3703125 24.0431764,33.9060938 22.5846674,33.8229688 C22.3095125,33.8073438 22.0163107,33.7858594 21.7079527,33.7590625 C21.8638114,33.5586719 22.0124826,33.3576563 22.1522476,33.1567188 C22.8875567,32.0989063 23.2678674,30.8453906 23.2521644,29.5317969 C23.2254457,27.2986719 22.9472439,23.4541406 22.2467784,19.3611719 C22.2399034,19.3211719 22.2327159,19.2801563 22.2256847,19.2397656 C26.000433,19.9961719 29.1590903,21.0054688 31.3981425,22.1742188 C32.0775925,22.5289844 32.3869661,23.3376563 32.1175142,24.0553125 C31.9875148,24.4015625 31.8232187,24.780625 31.6290008,25.1822656 C31.4881421,25.4736719 31.6100946,25.8239063 31.9014214,25.9648438 C31.9836085,26.0046094 32.0704831,26.0234375 32.1561078,26.0234375 C32.373763,26.0234375 32.5829027,25.9015625 32.6839178,25.6925 C32.8936044,25.2588281 33.0721973,24.8466406 33.2145404,24.4671094 C33.3457898,24.1175 33.3990708,23.7557813 33.382899,23.4017969 C34.0358647,23.7400781 34.7482833,23.9083594 35.4593738,23.9083594 C36.6242122,23.9083594 37.7847537,23.4584375 38.670609,22.5725781 C39.5099802,21.733125 39.9820092,20.6173437 39.9995091,19.430625 C40.0148216,18.3783594 39.6714638,17.3715625 39.0270917,16.5550781 Z M18.2561717,2.15796875 C19.3304637,1.08375 20.9317844,0.879765625 22.2077942,1.55820313 C21.1606896,2.120625 20.175616,2.84414063 19.2907764,3.72898438 C18.6284357,4.39132813 18.0477352,5.11851563 17.5539875,5.90046875 C17.000865,4.65632813 17.2468014,3.16734375 18.2561717,2.15796875 Z M3.23522526,36.7646094 C1.41624926,34.945625 0.750236703,32.3177344 1.43773354,29.8845312 C2.3304638,30.4589062 4.10545563,31.2579687 7.73207956,32.2682031 C8.16324945,33.8133594 8.59973182,35.1694531 9.01777677,36.255 C9.44207169,37.3567188 9.80769501,38.0794531 10.1194904,38.5610938 C7.6852829,39.2505469 5.05529501,38.5846875 3.23522526,36.7646094 Z M21.1899864,32.4876563 C19.9541327,34.2655469 18.0026573,36.04875 15.9696979,37.2579688 C14.0650192,38.3908594 12.3771363,38.8478125 11.5647963,38.4513281 C11.5466714,38.4424219 11.5272183,38.4304688 11.5069059,38.4160156 C11.4852654,38.3954688 11.4622186,38.3767188 11.438,38.3597656 C10.9574553,37.9196875 9.99863163,36.1241406 8.77988724,31.6653125 C8.77566851,31.6464063 8.77059041,31.6278125 8.76457481,31.6094531 C8.62645045,31.1025 8.48504485,30.5614844 8.34059239,29.984375 C8.261999,29.6704688 7.94403171,29.4795313 7.62997066,29.5582031 C7.31606585,29.6367188 7.12528548,29.9549219 7.20380074,30.26875 C7.2613786,30.4989844 7.31934709,30.7252344 7.37747182,30.9492969 C2.93233603,29.6605469 1.86429407,28.8134375 1.61656084,28.5300781 C1.61249836,28.525 1.60812338,28.5202344 1.60390465,28.5153125 C1.57062355,28.4753125 1.55507675,28.4483594 1.54851428,28.4349219 C0.924454651,27.1569531 2.46843192,23.5927344 5.33248123,20.6752344 C5.61216745,22.7440625 6.04185297,25.1485156 6.57372552,27.5778906 C6.64294395,27.8940625 6.95544251,28.0939063 7.27137856,28.025 C7.58747085,27.9557813 7.78754806,27.6434375 7.71848587,27.3274219 C6.89145843,23.5494531 6.31521108,19.8439844 6.17716485,17.4152344 C6.0942746,15.9571094 6.62981901,14.5260938 7.64668933,13.4890625 C9.81441373,11.2779688 13.4593969,8.81539062 15.9448543,7.88242187 C16.662351,7.61289062 17.4711754,7.92226562 17.8259393,8.60179687 C18.7503882,10.3728125 20.0056949,13.9610938 20.9135814,18.5378906 C20.9168626,18.59125 20.9270969,18.643125 20.94405,18.6924219 C21.5761565,21.9225 22.0333419,25.6355469 22.0802166,29.5453906 C22.0931072,30.6139844 21.785218,31.6313281 21.1899864,32.4876563 Z M32.801886,21.8478125 C32.5737621,21.5597656 32.2838415,21.3146875 31.9401712,21.1352344 C29.4782295,19.8500781 26.1350417,18.7960938 21.9988889,18.000625 C21.398501,14.8899219 20.4101462,11.0201563 18.8646846,8.0596875 C18.6853104,7.71601563 18.4401553,7.42609375 18.1521097,7.19789063 C18.6728104,6.23054688 19.3328855,5.3440625 20.1192882,4.55765625 C24.443487,0.2334375 31.3981425,0.1525 35.6227324,4.37710938 C39.8472442,8.60164063 39.7663071,15.5564063 35.4421864,19.8804688 C34.6557056,20.6671094 33.7692253,21.3270313 32.801886,21.8478125 Z M37.8418628,21.74375 C36.8324925,22.7530469 35.343515,22.9989844 34.0994582,22.4459375 C34.8814077,21.9522656 35.6084356,21.3714844 36.2708544,20.7091406 C37.1453817,19.8346094 37.8739721,18.85375 38.4443601,17.7971094 C39.1193569,19.0721875 38.9146704,20.6708594 37.8418628,21.74375 Z" id="Shape"></path>
                    <path d="M32.3411303,13 C31.8979992,13 31.4815203,13.1725643 31.1682037,13.4859069 C30.943881,13.7102482 30.9439576,14.0739124 31.1682803,14.2981771 C31.3926796,14.5224418 31.756237,14.5225184 31.9805597,14.2981005 C32.0769059,14.2017463 32.204959,14.1487439 32.3411303,14.1487439 C32.4773016,14.1487439 32.6054313,14.2017463 32.7017775,14.2981771 C32.7981236,14.3945312 32.8511983,14.522595 32.8511983,14.6587776 C32.8511983,14.7950368 32.7981236,14.9231005 32.7017775,15.0195312 C32.4774548,15.2438725 32.4775314,15.6075368 32.7017775,15.8318015 C32.8139771,15.9439338 32.9609471,16 33.1079172,16 C33.2548872,16 33.4019338,15.9439338 33.5141335,15.8317249 C33.82745,15.5183824 34,15.1018689 34,14.6587776 C34,14.2156863 33.82745,13.7990962 33.5141335,13.4859069 C33.2006638,13.1724112 32.7841848,13 32.3411303,13 Z" id="Shape"></path>
                    <path d="M28.3374186,12.7575473 C28.040764,12.7777229 27.7499796,12.6694031 27.540304,12.4597092 C27.3305457,12.2499327 27.2219873,11.9592883 27.2424091,11.6624425 C27.2658902,11.3207804 27.0079296,11.0248442 26.6663799,11.0013611 C26.3241688,10.978953 26.028837,11.235861 26.005356,11.5775231 C25.9603783,12.2320723 26.2003147,12.8733089 26.6634861,13.3366033 C27.0899478,13.7629368 27.6668865,14 28.2663968,14 C28.3182369,14 28.3703251,13.9982636 28.4224133,13.994708 C28.7641284,13.971225 29.0219236,13.675206 28.9985252,13.3336266 C28.9749615,12.9919645 28.6792164,12.734643 28.3374186,12.7575473 Z" id="Shape"></path>
                </g>
                <g id="baby-copy" transform="translate(0.000000, 45.000000)" fill="#FFFFFF">
                    <path d="M27,7.65848598 C27,7.21534965 26.8274439,6.79856859 26.5141164,6.48514005 C25.8674715,5.83836327 24.8151322,5.83821004 24.1682575,6.48514005 C23.9439269,6.70954293 23.9439269,7.07330699 24.1681809,7.29763326 C24.3925115,7.52211276 24.7561583,7.52203615 24.9804888,7.29770988 C25.1793151,7.09866628 25.502829,7.09874289 25.7017319,7.29763326 C25.7980814,7.3940905 25.8511579,7.52218938 25.8511579,7.65848598 C25.8511579,7.79470596 25.7980814,7.92280485 25.7017319,8.01918546 C25.4774013,8.24358835 25.4774013,8.60735241 25.7017319,8.83167868 C25.8139355,8.94391843 25.9609106,9 26.1079624,9 C26.2549376,9 26.4019894,8.94391843 26.5141164,8.83175529 C26.8273673,8.51832675 27,8.10169892 27,7.65848598 Z" id="Shape"></path>
                    <path d="M39.0270917,16.5550781 C39.5927923,15.1514062 39.8979471,13.6453906 39.9150564,12.0978906 C39.9487281,9.053125 38.86678,6.19125 36.8568674,3.97453125 C37.4529584,3.40984375 38.1805331,2.99179688 38.9698264,2.7625 C39.2806062,2.67226563 39.4593554,2.3471875 39.3690433,2.03648438 C39.2788093,1.72570313 38.9536546,1.54695313 38.643031,1.63726563 C37.664598,1.92148438 36.7637428,2.44226563 36.0282774,3.14609375 C32.5638403,0.00625 27.6527691,-0.70875 23.4509135,0.9775 C22.6510734,0.3440625 21.6679529,0 20.6381139,0 C20.6152234,0 20.5922547,0.00015625 20.5694423,0.00046875 C19.3828072,0.018125 18.2669529,0.490078125 17.4276599,1.32945312 C16.0008696,2.75625 15.7063397,4.89421875 16.5988356,6.61710938 C16.2447747,6.60085937 15.8829014,6.65421875 15.5331374,6.78554688 C12.9113526,7.76953125 9.07965148,10.35375 6.80997443,12.66875 C5.56271455,13.9407813 4.90568632,15.6950781 5.00724836,17.4817969 C5.03709197,18.00625 5.08685736,18.5885938 5.15443518,19.2160156 C3.61850475,20.6385156 2.2280424,22.4342969 1.31343724,24.1857031 C0.706721278,25.3476562 -0.206321394,27.5115625 0.495784749,28.9491406 C0.498519112,28.9547656 0.501409723,28.960625 0.504300335,28.9665625 C-0.596241474,31.9654687 0.13398954,35.3205469 2.40671345,37.5932031 C3.97944059,39.1659375 6.07005596,40.0001562 8.20278052,40 C9.15183865,40 10.1094124,39.8340625 11.0329237,39.4952344 C11.0387831,39.4982031 11.0447987,39.5014063 11.050658,39.5042187 C11.3944846,39.6721094 11.8049514,39.7546875 12.2703399,39.7546875 C13.4273658,39.7546875 14.9225933,39.2441406 16.5686795,38.2650781 C18.0918756,37.3590625 19.5741344,36.1477344 20.7814726,34.8459375 C21.4112353,34.9135938 21.9943577,34.9629688 22.5180271,34.9928125 C22.6386516,34.9996875 22.7589635,35.0030469 22.8791973,35.0030469 C24.5391897,35.0030469 26.1448854,34.3532031 27.33113,33.1901563 C28.6579207,31.8892188 30.1111172,30.0440625 31.3182991,28.1276563 C31.4907983,27.8539062 31.4086112,27.4921875 31.1348625,27.3196875 C30.8610356,27.1471875 30.4993185,27.2292969 30.3268974,27.5032031 C29.1661996,29.3457031 27.7753467,31.1135156 26.5108212,32.3534375 C25.4737166,33.3703125 24.0431764,33.9060938 22.5846674,33.8229688 C22.3095125,33.8073438 22.0163107,33.7858594 21.7079527,33.7590625 C21.8638114,33.5586719 22.0124826,33.3576563 22.1522476,33.1567188 C22.8875567,32.0989063 23.2678674,30.8453906 23.2521644,29.5317969 C23.2254457,27.2986719 22.9472439,23.4541406 22.2467784,19.3611719 C22.2399034,19.3211719 22.2327159,19.2801563 22.2256847,19.2397656 C26.000433,19.9961719 29.1590903,21.0054688 31.3981425,22.1742188 C32.0775925,22.5289844 32.3869661,23.3376563 32.1175142,24.0553125 C31.9875148,24.4015625 31.8232187,24.780625 31.6290008,25.1822656 C31.4881421,25.4736719 31.6100946,25.8239063 31.9014214,25.9648438 C31.9836085,26.0046094 32.0704831,26.0234375 32.1561078,26.0234375 C32.373763,26.0234375 32.5829027,25.9015625 32.6839178,25.6925 C32.8936044,25.2588281 33.0721973,24.8466406 33.2145404,24.4671094 C33.3457898,24.1175 33.3990708,23.7557813 33.382899,23.4017969 C34.0358647,23.7400781 34.7482833,23.9083594 35.4593738,23.9083594 C36.6242122,23.9083594 37.7847537,23.4584375 38.670609,22.5725781 C39.5099802,21.733125 39.9820092,20.6173437 39.9995091,19.430625 C40.0148216,18.3783594 39.6714638,17.3715625 39.0270917,16.5550781 Z M18.2561717,2.15796875 C19.3304637,1.08375 20.9317844,0.879765625 22.2077942,1.55820313 C21.1606896,2.120625 20.175616,2.84414063 19.2907764,3.72898438 C18.6284357,4.39132813 18.0477352,5.11851563 17.5539875,5.90046875 C17.000865,4.65632813 17.2468014,3.16734375 18.2561717,2.15796875 Z M3.23522526,36.7646094 C1.41624926,34.945625 0.750236703,32.3177344 1.43773354,29.8845312 C2.3304638,30.4589062 4.10545563,31.2579687 7.73207956,32.2682031 C8.16324945,33.8133594 8.59973182,35.1694531 9.01777677,36.255 C9.44207169,37.3567188 9.80769501,38.0794531 10.1194904,38.5610938 C7.6852829,39.2505469 5.05529501,38.5846875 3.23522526,36.7646094 Z M21.1899864,32.4876563 C19.9541327,34.2655469 18.0026573,36.04875 15.9696979,37.2579688 C14.0650192,38.3908594 12.3771363,38.8478125 11.5647963,38.4513281 C11.5466714,38.4424219 11.5272183,38.4304688 11.5069059,38.4160156 C11.4852654,38.3954688 11.4622186,38.3767188 11.438,38.3597656 C10.9574553,37.9196875 9.99863163,36.1241406 8.77988724,31.6653125 C8.77566851,31.6464063 8.77059041,31.6278125 8.76457481,31.6094531 C8.62645045,31.1025 8.48504485,30.5614844 8.34059239,29.984375 C8.261999,29.6704688 7.94403171,29.4795313 7.62997066,29.5582031 C7.31606585,29.6367188 7.12528548,29.9549219 7.20380074,30.26875 C7.2613786,30.4989844 7.31934709,30.7252344 7.37747182,30.9492969 C2.93233603,29.6605469 1.86429407,28.8134375 1.61656084,28.5300781 C1.61249836,28.525 1.60812338,28.5202344 1.60390465,28.5153125 C1.57062355,28.4753125 1.55507675,28.4483594 1.54851428,28.4349219 C0.924454651,27.1569531 2.46843192,23.5927344 5.33248123,20.6752344 C5.61216745,22.7440625 6.04185297,25.1485156 6.57372552,27.5778906 C6.64294395,27.8940625 6.95544251,28.0939063 7.27137856,28.025 C7.58747085,27.9557813 7.78754806,27.6434375 7.71848587,27.3274219 C6.89145843,23.5494531 6.31521108,19.8439844 6.17716485,17.4152344 C6.0942746,15.9571094 6.62981901,14.5260938 7.64668933,13.4890625 C9.81441373,11.2779688 13.4593969,8.81539062 15.9448543,7.88242187 C16.662351,7.61289062 17.4711754,7.92226562 17.8259393,8.60179687 C18.7503882,10.3728125 20.0056949,13.9610938 20.9135814,18.5378906 C20.9168626,18.59125 20.9270969,18.643125 20.94405,18.6924219 C21.5761565,21.9225 22.0333419,25.6355469 22.0802166,29.5453906 C22.0931072,30.6139844 21.785218,31.6313281 21.1899864,32.4876563 Z M32.801886,21.8478125 C32.5737621,21.5597656 32.2838415,21.3146875 31.9401712,21.1352344 C29.4782295,19.8500781 26.1350417,18.7960938 21.9988889,18.000625 C21.398501,14.8899219 20.4101462,11.0201563 18.8646846,8.0596875 C18.6853104,7.71601563 18.4401553,7.42609375 18.1521097,7.19789063 C18.6728104,6.23054688 19.3328855,5.3440625 20.1192882,4.55765625 C24.443487,0.2334375 31.3981425,0.1525 35.6227324,4.37710938 C39.8472442,8.60164063 39.7663071,15.5564063 35.4421864,19.8804688 C34.6557056,20.6671094 33.7692253,21.3270313 32.801886,21.8478125 Z M37.8418628,21.74375 C36.8324925,22.7530469 35.343515,22.9989844 34.0994582,22.4459375 C34.8814077,21.9522656 35.6084356,21.3714844 36.2708544,20.7091406 C37.1453817,19.8346094 37.8739721,18.85375 38.4443601,17.7971094 C39.1193569,19.0721875 38.9146704,20.6708594 37.8418628,21.74375 Z" id="Shape"></path>
                    <path d="M32.3411303,13 C31.8979992,13 31.4815203,13.1725643 31.1682037,13.4859069 C30.943881,13.7102482 30.9439576,14.0739124 31.1682803,14.2981771 C31.3926796,14.5224418 31.756237,14.5225184 31.9805597,14.2981005 C32.0769059,14.2017463 32.204959,14.1487439 32.3411303,14.1487439 C32.4773016,14.1487439 32.6054313,14.2017463 32.7017775,14.2981771 C32.7981236,14.3945312 32.8511983,14.522595 32.8511983,14.6587776 C32.8511983,14.7950368 32.7981236,14.9231005 32.7017775,15.0195312 C32.4774548,15.2438725 32.4775314,15.6075368 32.7017775,15.8318015 C32.8139771,15.9439338 32.9609471,16 33.1079172,16 C33.2548872,16 33.4019338,15.9439338 33.5141335,15.8317249 C33.82745,15.5183824 34,15.1018689 34,14.6587776 C34,14.2156863 33.82745,13.7990962 33.5141335,13.4859069 C33.2006638,13.1724112 32.7841848,13 32.3411303,13 Z" id="Shape"></path>
                    <path d="M28.3374186,12.7575473 C28.040764,12.7777229 27.7499796,12.6694031 27.540304,12.4597092 C27.3305457,12.2499327 27.2219873,11.9592883 27.2424091,11.6624425 C27.2658902,11.3207804 27.0079296,11.0248442 26.6663799,11.0013611 C26.3241688,10.978953 26.028837,11.235861 26.005356,11.5775231 C25.9603783,12.2320723 26.2003147,12.8733089 26.6634861,13.3366033 C27.0899478,13.7629368 27.6668865,14 28.2663968,14 C28.3182369,14 28.3703251,13.9982636 28.4224133,13.994708 C28.7641284,13.971225 29.0219236,13.675206 28.9985252,13.3336266 C28.9749615,12.9919645 28.6792164,12.734643 28.3374186,12.7575473 Z" id="Shape"></path>
                </g>
            </g>
        </g>
    </g>
</svg>