<?xml version="1.0" encoding="UTF-8"?>
<svg width="44px" height="85px" viewBox="0 0 44 85" version="1.1" xmlns="http://www.w3.org/2000/svg" xmlns:xlink="http://www.w3.org/1999/xlink">
    <!-- Generator: Sketch 49 (51002) - http://www.bohemiancoding.com/sketch -->
    <title>Group 11</title>
    <desc>Created with Sketch.</desc>
    <defs></defs>
    <g id="chame-UI" stroke="none" stroke-width="1" fill="none" fill-rule="evenodd">
        <g id="1.1-ChaMe-Home" transform="translate(-1174.000000, -1284.000000)" fill-rule="nonzero">
            <g id="Group-11" transform="translate(1174.000000, 1284.000000)">
                <g id="friendship" fill="#00B2FF">
                    <path d="M36.5459926,16.8551977 C36.2065068,16.7323831 35.819988,16.8783093 35.6822487,17.1810469 C35.3105824,17.998628 34.430483,18.5269596 33.4400507,18.5269596 C32.7941435,18.5269596 32.1859864,18.3022333 31.7282109,17.8947443 C31.4972898,17.6887123 31.3189713,17.4489201 31.1982063,17.1819146 C31.0610858,16.8790192 30.6747439,16.7323831 30.3350812,16.8548033 C29.9954185,16.9770658 29.8313337,17.3217671 29.9683657,17.6248203 C30.1562323,18.0400395 30.4328602,18.4123484 30.7910885,18.7318873 C31.4997652,19.3627617 32.4405124,19.7101449 33.4400507,19.7101449 C34.9730415,19.7101449 36.3355821,18.8919329 36.9112051,17.6257668 C37.0488561,17.3230292 36.8853017,16.9780123 36.5459926,16.8551977 Z" id="Shape"></path>
                    <path d="M29.6266667,12.7536232 C29.1405547,12.7536232 28.7466667,12.9568349 28.7466667,13.2074909 L28.7466667,13.4591757 C28.7466667,13.7098318 29.1405547,13.9130435 29.6266667,13.9130435 C30.1127787,13.9130435 30.5066667,13.7098318 30.5066667,13.4591757 L30.5066667,13.2074909 C30.5066667,12.9568349 30.1127787,12.7536232 29.6266667,12.7536232 Z" id="Shape"></path>
                    <path d="M37.2533333,12.7536232 C36.7672213,12.7536232 36.3733333,12.9568349 36.3733333,13.2074909 L36.3733333,13.4591757 C36.3733333,13.7098318 36.7672213,13.9130435 37.2533333,13.9130435 C37.7394453,13.9130435 38.1333333,13.7098318 38.1333333,13.4591757 L38.1333333,13.2074909 C38.1333333,12.9568349 37.7394453,12.7536232 37.2533333,12.7536232 Z" id="Shape"></path>
                    <path d="M14.2526533,16.8551531 C13.9130742,16.7323366 13.5266383,16.878265 13.388897,17.1810074 C13.0172253,17.9986012 12.1371133,18.5269412 11.1466667,18.5269412 C10.5007502,18.5269412 9.89258442,18.3022113 9.43480238,17.8947948 C9.20378954,17.6886019 9.02538009,17.4488059 8.90479015,17.1820329 C8.76775613,16.8790538 8.38149701,16.7324154 8.04182945,16.8547587 C7.7021619,16.9770231 7.5379863,17.3217298 7.67502032,17.6247088 C7.86271272,18.0397767 8.13925622,18.4120915 8.49766649,18.7319509 C9.20644181,19.3627563 10.1472025,19.7101449 11.1466667,19.7101449 C12.6796796,19.7101449 14.0422398,18.8919201 14.6178711,17.6257343 C14.755524,17.3229919 14.5919673,16.9779697 14.2526533,16.8551531 Z" id="Shape"></path>
                    <path d="M7.62666667,12.7536232 C7.302592,12.7536232 7.04,12.9568349 7.04,13.2074909 L7.04,13.4591757 C7.04,13.7098318 7.302592,13.9130435 7.62666667,13.9130435 C7.95074133,13.9130435 8.21333333,13.7098318 8.21333333,13.4591757 L8.21333333,13.2074909 C8.21333333,12.9568349 7.95074133,12.7536232 7.62666667,12.7536232 Z" id="Shape"></path>
                    <path d="M14.96,12.7536232 C14.473888,12.7536232 14.08,12.9568349 14.08,13.2074909 L14.08,13.4591757 C14.08,13.7098318 14.473888,13.9130435 14.96,13.9130435 C15.446112,13.9130435 15.84,13.7098318 15.84,13.4591757 L15.84,13.2074909 C15.84,12.9568349 15.446112,12.7536232 14.96,12.7536232 Z" id="Shape"></path>
                    <path d="M43.3554688,9.20301906 C43.7115078,9.20301906 44,8.91663469 44,8.56338749 L44,6.78862309 C44,4.26753657 41.9332031,2.21653661 39.3928906,2.21653661 L38.5263828,2.21653661 L38.4211953,1.97518229 C37.89775,0.77531875 36.7082891,0 35.3907812,0 L31.1153906,0 C26.5653438,0 22.8635859,3.67353205 22.8635859,8.18898981 L22.8635859,21.2494137 C22.8635859,23.1427231 24.4157031,24.682956 26.3234297,24.682956 L30.0101484,24.682956 L30.0101484,25.5861157 L16.0926562,25.5861157 L14.7494531,25.5861157 L14.7494531,24.3653576 C15.5231484,24.0041789 16.2414141,23.5198499 16.8755469,22.9203019 C18.2223594,21.6470939 19.0721094,19.9760351 19.3061172,18.163234 C20.6134844,18.1619547 21.6766172,17.1060509 21.6766172,15.8082811 L21.6766172,14.9968871 C21.6766172,14.4226685 21.4679609,13.8962091 21.1226641,13.4871008 L22.6060313,7.6608247 C22.6932578,7.31832331 22.4841719,6.97053431 22.1389609,6.88397083 C21.7943516,6.7977485 21.4433828,7.00490384 21.3562422,7.34740523 L19.9830469,12.7408639 C19.7888281,12.6831265 19.5845547,12.6490128 19.3730625,12.6429577 L19.3730625,10.4841585 C19.3730625,10.2812673 19.2760391,10.0904013 19.1116406,9.96980939 C18.9472422,9.84921752 18.7347188,9.81305701 18.5394688,9.87267068 C15.0073516,10.9480193 11.9117109,10.89122 9.58735938,9.70798687 C7.84609375,8.82154279 7.12378906,7.59942007 7.118375,7.5900388 C6.97485938,7.33631828 6.67657031,7.21077992 6.39323438,7.2843802 C6.10955469,7.35798047 5.91172656,7.61229798 5.91172656,7.90320242 C5.91172656,9.48761247 5.57089844,9.83088141 3.88575,9.94371242 C3.54732813,9.96639802 3.28461719,10.2453627 3.28461719,10.5818942 L3.28461719,12.6430429 C3.04966406,12.6496951 2.82321875,12.6906315 2.60992188,12.7606499 C2.33157031,11.7137862 2.15488281,10.9370176 2.10469531,10.534732 C2.00440625,9.73433969 2.07392969,7.34791693 2.10916406,6.49601296 C2.10950781,6.48722869 2.10967969,6.4785297 2.10967969,6.46974543 C2.10967969,5.42245533 2.96819531,4.57046608 4.02359375,4.57046608 L5.00070313,4.57046608 C5.17163281,4.57046608 5.33551563,4.50309155 5.45651563,4.38309667 L7.76204688,2.09492133 C8.22894531,1.6316575 8.91739063,1.4383182 9.55917188,1.59029466 L17.6662578,3.50398704 C18.0934531,3.60496354 18.5328516,3.65613407 18.9723359,3.65613407 C20.244125,3.65613407 21.4924531,3.22323142 22.4873516,2.43725214 C22.5034219,2.4245448 22.5234453,2.40851136 22.5624609,2.43358492 C22.6013906,2.45848791 22.5951172,2.48304976 22.5901328,2.50257985 L22.1020078,4.41976888 C22.0147813,4.76227027 22.2238672,5.11005927 22.5690781,5.19662275 C22.9141172,5.28318622 23.2647422,5.07568974 23.3517969,4.73318835 L23.8400078,2.81582875 C23.9843828,2.24800648 23.7570781,1.67600529 23.2611328,1.35857746 C22.7649297,1.04097906 22.1460078,1.07168138 21.6844375,1.43661251 C20.9167578,2.04306853 19.9535703,2.37704149 18.97225,2.37704149 C18.6332266,2.37704149 18.2942031,2.3375549 17.9646328,2.25969042 L9.85789062,0.345742186 C8.78401563,0.0915099569 7.63176562,0.415078248 6.85059375,1.19022643 L4.73378125,3.29111765 L4.02359375,3.29111765 C2.26213281,3.29111765 0.828179688,4.70956462 0.820617187,6.45592938 C0.8105625,6.70410643 0.694460937,9.64700866 0.825515625,10.6921666 C0.891515625,11.2217816 1.11417969,12.1813142 1.48723438,13.5451793 C1.17055469,13.9455034 0.9810625,14.4495331 0.9810625,14.9969724 L0.9810625,15.8083664 C0.9810625,17.1059656 2.04359375,18.1618694 3.35027344,18.1633193 C3.70614062,20.9279775 5.47765625,23.2313334 7.90702344,24.3648458 L7.90702344,25.5861157 L6.56476562,25.5861157 C6.171,25.5861157 5.78299219,25.6293548 5.40478125,25.714042 C5.09016406,25.1681378 4.49865625,24.7986013 3.82078125,24.7986013 L2.25113281,24.7986013 C1.00985156,24.7986013 0,25.8007761 0,27.0326212 L0,30.5124728 C0,31.411539 0.538226563,32.1877105 1.31140625,32.5417253 L1.31140625,39.3602831 C1.31140625,39.7135303 1.59989844,39.9999147 1.9559375,39.9999147 L20.7014844,39.9999147 C21.0575234,39.9999147 21.3460156,39.7135303 21.3460156,39.3602831 L21.3460156,30.7995395 C21.3460156,29.23031 20.6427891,27.8219266 19.5338516,26.8653789 L30.0102344,26.8653789 L30.0102344,27.1843418 C30.0102344,29.0292098 32.8004531,30.6253891 33.1185938,30.8013304 C33.2161328,30.8552301 33.3242422,30.8822651 33.4322656,30.8822651 C33.5404609,30.8822651 33.6485703,30.8553153 33.7460234,30.8013304 C34.0640781,30.6253891 36.8533516,29.0291246 36.8533516,27.1843418 L36.8533516,26.8653789 L38.1956953,26.8653789 C40.3816875,26.8653789 42.1599922,28.6302503 42.1599922,30.7995395 L42.1599922,38.7207369 L40.3534141,38.7207369 L40.3534141,34.4352053 C40.3534141,34.0819581 40.0649219,33.7955737 39.7088828,33.7955737 C39.3528438,33.7955737 39.0643516,34.0819581 39.0643516,34.4352053 L39.0643516,38.7207369 L27.7999219,38.7207369 L27.7999219,31.3641209 C27.7999219,31.0108737 27.5114297,30.7244894 27.1553906,30.7244894 L23.2890625,30.7244894 C22.9330234,30.7244894 22.6445312,31.0108737 22.6445312,31.3641209 C22.6445312,31.7173681 22.9330234,32.0037525 23.2890625,32.0037525 L26.5108594,32.0037525 L26.5108594,39.3603684 C26.5108594,39.7136156 26.7993516,40 27.1553906,40 L42.8046094,40 C43.1606484,40 43.4491406,39.7136156 43.4491406,39.3603684 L43.4491406,30.7995395 C43.4491406,27.9248646 41.0924766,25.5861157 38.1957813,25.5861157 L36.8534375,25.5861157 L36.8534375,24.682956 L40.5410156,24.682956 C42.4483125,24.682956 44,23.1426378 44,21.2494137 L44,11.5833014 C44,11.2300542 43.7115078,10.9436698 43.3554688,10.9436698 C42.9994297,10.9436698 42.7109375,11.2300542 42.7109375,11.5833014 L42.7109375,13.0310008 C42.3543828,12.7971515 41.9311406,12.6557503 41.4757578,12.6428724 L41.4757578,9.55899535 C41.4757578,8.08895143 41.03,6.67613321 40.1866953,5.47319944 C40.0840859,5.32668116 39.9243281,5.22945717 39.7462656,5.20489531 C39.5681172,5.18024818 39.3878203,5.23082171 39.2487734,5.34399386 C36.4181641,7.64897019 32.8396406,8.91834037 29.1723438,8.91834037 C28.1560469,8.91834037 27.1429297,8.82299262 26.1610938,8.63494094 C25.9782188,8.59997441 25.7883828,8.64526033 25.6415156,8.75945589 C25.4946484,8.87365144 25.4048438,9.04541384 25.3953047,9.23031001 C25.3898906,9.33435674 25.3873125,9.44190013 25.3873125,9.55899535 L25.3873125,12.6429577 C24.9321875,12.6560061 24.5092031,12.7974074 24.1527344,13.0310861 L24.1527344,8.18898981 C24.1527344,4.37900303 27.2762188,1.27926314 31.1154766,1.27926314 L35.3908672,1.27926314 C36.1940391,1.27926314 36.9191797,1.75190823 37.2381797,2.48330562 L37.5114609,3.11014456 C37.6135547,3.34424971 37.8460156,3.49579975 38.1030547,3.49579975 L39.3929766,3.49579975 C41.2225859,3.49579975 42.7110234,4.97292226 42.7110234,6.78862309 L42.7110234,8.56338749 C42.7109375,8.91663469 42.9994297,9.20301906 43.3554688,9.20301906 Z M4.58296094,17.4905974 C4.56525781,17.1506546 4.28235156,16.8839708 3.93928906,16.8839708 L3.35302344,16.8839708 C2.75592969,16.8839708 2.270125,16.4014328 2.270125,15.8082811 L2.270125,14.9968871 C2.270125,14.4037354 2.75584375,13.9211974 3.35302344,13.9211974 L3.92923437,13.9211974 C4.28527344,13.9211974 4.57376562,13.634813 4.57376562,13.2815658 L4.57376562,11.1587566 C5.91696875,10.9684875 6.67296094,10.4491919 7.00141406,9.43695365 C7.46066406,9.87736131 8.08989844,10.3716686 8.91532812,10.8029508 C11.9248594,12.3753358 15.428875,12.0234532 18.084,11.3312012 L18.084,13.2815658 C18.084,13.634813 18.3724922,13.9211974 18.7285312,13.9211974 L19.303625,13.9211974 C19.9012344,13.9211974 20.3874687,14.4037354 20.3874687,14.9968871 L20.3874687,15.8082811 C20.3874687,16.4014328 19.9012344,16.8839708 19.303625,16.8839708 L18.7173594,16.8839708 C18.3743828,16.8839708 18.0914766,17.150484 18.0736875,17.4904268 C17.9837969,19.2071127 17.2425,20.8065328 15.9864375,21.9940301 C15.3616719,22.5847085 14.6402266,23.0434523 13.8595703,23.3564454 C13.8555312,23.3580658 13.8515781,23.3597714 13.8475391,23.3615624 C13.0558828,23.6771993 12.2035547,23.8429065 11.3287969,23.8429065 C10.4399453,23.8429065 9.59010937,23.6719969 8.81108594,23.361733 C8.79896875,23.3564454 8.78642187,23.35184 8.77396094,23.3472347 C6.4191875,22.3933308 4.72192187,20.1585433 4.58296094,17.4905974 Z M13.4603906,24.8368939 L13.4603906,26.2257473 L13.4603906,27.1843418 C13.4603906,27.7498614 13.2387578,28.2812673 12.8361406,28.6807386 C12.4336953,29.0802098 11.8982187,29.3001578 11.3282812,29.3001578 C10.1525703,29.3001578 9.19608594,28.3510298 9.19608594,27.1842565 L9.19608594,26.2257473 L9.19608594,24.8373204 C9.87610938,25.0222165 10.5910234,25.1221696 11.3288828,25.1221696 C12.0578047,25.1221696 12.7731484,25.0236664 13.4603906,24.8368939 Z M1.2890625,30.5125581 L1.2890625,27.0326212 C1.2890625,26.5061618 1.72064063,26.0778645 2.25113281,26.0778645 L3.82078125,26.0778645 C4.11623438,26.0778645 4.35651563,26.3164044 4.35651563,26.6096115 L4.35651563,30.9355678 C4.35651563,31.2287749 4.11614844,31.4673148 3.82078125,31.4673148 L2.25113281,31.4673148 C1.72064063,31.4673148 1.2890625,31.0390175 1.2890625,30.5125581 Z M20.0569531,30.7995395 L20.0569531,38.7207369 L18.2499453,38.7207369 L18.2499453,34.4352053 C18.2499453,34.0819581 17.9614531,33.7955737 17.6054141,33.7955737 C17.249375,33.7955737 16.9608828,34.0819581 16.9608828,34.4352053 L16.9608828,38.7207369 L5.69602344,38.7207369 L5.69602344,34.4352053 C5.69602344,34.0819581 5.40753125,33.7955737 5.05149219,33.7955737 C4.69545313,33.7955737 4.40696094,34.0819581 4.40696094,34.4352053 L4.40696094,38.7207369 L2.60046875,38.7207369 L2.60046875,32.746578 L3.82078125,32.746578 C4.82702344,32.746578 5.64557813,31.9341606 5.64557813,30.9355678 L5.64557813,26.97224 C5.94446875,26.9017952 6.25195313,26.8653789 6.56467969,26.8653789 L7.90702344,26.8653789 L7.90702344,27.1843418 C7.90702344,29.0564155 9.44178125,30.5795062 11.3282813,30.5795062 C12.2425703,30.5795062 13.1017734,30.2264296 13.7476797,29.5853482 C14.3936719,28.9442668 14.7493672,28.0915952 14.7493672,27.1843418 L14.7493672,26.8653789 L16.0925703,26.8653789 C18.2785625,26.8653789 20.0569531,28.6302503 20.0569531,30.7995395 Z M35.564375,27.1843418 C35.564375,27.8933947 34.4044766,28.8951431 33.4322656,29.4991258 C32.4593672,28.8949725 31.2992969,27.8933095 31.2992969,27.1843418 L31.2992969,24.8373204 C31.9791484,25.0222165 32.6938906,25.1220843 33.4315781,25.1220843 C34.1610156,25.1220843 34.8767891,25.0234958 35.564375,24.8366381 L35.564375,27.1843418 Z M42.7109375,17.774338 L42.7109375,21.2494137 C42.7109375,22.4373374 41.7375234,23.4036928 40.5410156,23.4036928 L38.4178438,23.4036928 C38.6112891,23.2517163 38.7988906,23.090785 38.9794453,22.9201313 C40.3260859,21.6461558 41.1758359,19.9750117 41.4098438,18.163234 C41.8901484,18.1627223 42.3371953,18.0193595 42.7109375,17.774338 Z M25.4566641,13.9211974 L26.0317578,13.9211974 C26.3877969,13.9211974 26.6762891,13.634813 26.6762891,13.2815658 L26.6762891,10.0186772 C27.4976797,10.1375634 28.3341953,10.1976888 29.1722578,10.1976888 C32.8908594,10.1976888 36.5251562,8.99032024 39.4871641,6.78418831 C39.9465,7.63361904 40.1866094,8.58078547 40.1866094,9.55908064 L40.1866094,13.2816511 C40.1866094,13.6348983 40.4751016,13.9212827 40.8311406,13.9212827 L41.4073516,13.9212827 C42.0044453,13.9212827 42.49025,14.4038207 42.49025,14.9969724 L42.49025,15.8083664 C42.49025,16.4015181 42.0045312,16.8840561 41.4073516,16.8840561 L40.8210859,16.8840561 C40.4781094,16.8840561 40.1952031,17.1505693 40.1774141,17.4905121 C40.0876094,19.2062599 39.3462266,20.8057652 38.0901641,21.9941154 C37.4684062,22.5818942 36.7507422,23.038847 35.9742969,23.3517547 C35.9628672,23.3561895 35.9516094,23.3609654 35.9404375,23.3660825 C35.1516172,23.6789902 34.3026406,23.8429918 33.4314922,23.8429918 C32.5429844,23.8429918 31.6934062,23.6721675 30.9146406,23.3619888 C30.9021797,23.3565306 30.889375,23.35184 30.8765703,23.3471494 C28.5223984,22.3931602 26.8255625,20.1584581 26.6866875,17.4906827 C26.6689844,17.1507398 26.3860781,16.8840561 26.0430156,16.8840561 L25.45675,16.8840561 C24.8591406,16.8840561 24.3729062,16.4015181 24.3729062,15.8083664 L24.3729062,14.9968871 L24.3728203,14.9968871 C24.3728203,14.4037354 24.8590547,13.9211974 25.4566641,13.9211974 Z M25.454,18.163234 C25.7277969,20.2907339 26.8402578,22.1449832 28.4449687,23.4036928 L26.3235156,23.4036928 C25.1264922,23.4036928 24.1527344,22.4372521 24.1527344,21.2494137 L24.1527344,17.7744233 C24.5264766,18.0193595 24.9736094,18.1627223 25.454,18.163234 Z" id="Shape"></path>
                </g>
                <g id="friendship-copy" transform="translate(0.000000, 45.000000)" fill="#FFFFFF">
                    <path d="M36.5459926,16.8551977 C36.2065068,16.7323831 35.819988,16.8783093 35.6822487,17.1810469 C35.3105824,17.998628 34.430483,18.5269596 33.4400507,18.5269596 C32.7941435,18.5269596 32.1859864,18.3022333 31.7282109,17.8947443 C31.4972898,17.6887123 31.3189713,17.4489201 31.1982063,17.1819146 C31.0610858,16.8790192 30.6747439,16.7323831 30.3350812,16.8548033 C29.9954185,16.9770658 29.8313337,17.3217671 29.9683657,17.6248203 C30.1562323,18.0400395 30.4328602,18.4123484 30.7910885,18.7318873 C31.4997652,19.3627617 32.4405124,19.7101449 33.4400507,19.7101449 C34.9730415,19.7101449 36.3355821,18.8919329 36.9112051,17.6257668 C37.0488561,17.3230292 36.8853017,16.9780123 36.5459926,16.8551977 Z" id="Shape"></path>
                    <path d="M29.6266667,12.7536232 C29.1405547,12.7536232 28.7466667,12.9568349 28.7466667,13.2074909 L28.7466667,13.4591757 C28.7466667,13.7098318 29.1405547,13.9130435 29.6266667,13.9130435 C30.1127787,13.9130435 30.5066667,13.7098318 30.5066667,13.4591757 L30.5066667,13.2074909 C30.5066667,12.9568349 30.1127787,12.7536232 29.6266667,12.7536232 Z" id="Shape"></path>
                    <path d="M37.2533333,12.7536232 C36.7672213,12.7536232 36.3733333,12.9568349 36.3733333,13.2074909 L36.3733333,13.4591757 C36.3733333,13.7098318 36.7672213,13.9130435 37.2533333,13.9130435 C37.7394453,13.9130435 38.1333333,13.7098318 38.1333333,13.4591757 L38.1333333,13.2074909 C38.1333333,12.9568349 37.7394453,12.7536232 37.2533333,12.7536232 Z" id="Shape"></path>
                    <path d="M14.2526533,16.8551531 C13.9130742,16.7323366 13.5266383,16.878265 13.388897,17.1810074 C13.0172253,17.9986012 12.1371133,18.5269412 11.1466667,18.5269412 C10.5007502,18.5269412 9.89258442,18.3022113 9.43480238,17.8947948 C9.20378954,17.6886019 9.02538009,17.4488059 8.90479015,17.1820329 C8.76775613,16.8790538 8.38149701,16.7324154 8.04182945,16.8547587 C7.7021619,16.9770231 7.5379863,17.3217298 7.67502032,17.6247088 C7.86271272,18.0397767 8.13925622,18.4120915 8.49766649,18.7319509 C9.20644181,19.3627563 10.1472025,19.7101449 11.1466667,19.7101449 C12.6796796,19.7101449 14.0422398,18.8919201 14.6178711,17.6257343 C14.755524,17.3229919 14.5919673,16.9779697 14.2526533,16.8551531 Z" id="Shape"></path>
                    <path d="M7.62666667,12.7536232 C7.302592,12.7536232 7.04,12.9568349 7.04,13.2074909 L7.04,13.4591757 C7.04,13.7098318 7.302592,13.9130435 7.62666667,13.9130435 C7.95074133,13.9130435 8.21333333,13.7098318 8.21333333,13.4591757 L8.21333333,13.2074909 C8.21333333,12.9568349 7.95074133,12.7536232 7.62666667,12.7536232 Z" id="Shape"></path>
                    <path d="M14.96,12.7536232 C14.473888,12.7536232 14.08,12.9568349 14.08,13.2074909 L14.08,13.4591757 C14.08,13.7098318 14.473888,13.9130435 14.96,13.9130435 C15.446112,13.9130435 15.84,13.7098318 15.84,13.4591757 L15.84,13.2074909 C15.84,12.9568349 15.446112,12.7536232 14.96,12.7536232 Z" id="Shape"></path>
                    <path d="M43.3554688,9.20301906 C43.7115078,9.20301906 44,8.91663469 44,8.56338749 L44,6.78862309 C44,4.26753657 41.9332031,2.21653661 39.3928906,2.21653661 L38.5263828,2.21653661 L38.4211953,1.97518229 C37.89775,0.77531875 36.7082891,0 35.3907812,0 L31.1153906,0 C26.5653438,0 22.8635859,3.67353205 22.8635859,8.18898981 L22.8635859,21.2494137 C22.8635859,23.1427231 24.4157031,24.682956 26.3234297,24.682956 L30.0101484,24.682956 L30.0101484,25.5861157 L16.0926562,25.5861157 L14.7494531,25.5861157 L14.7494531,24.3653576 C15.5231484,24.0041789 16.2414141,23.5198499 16.8755469,22.9203019 C18.2223594,21.6470939 19.0721094,19.9760351 19.3061172,18.163234 C20.6134844,18.1619547 21.6766172,17.1060509 21.6766172,15.8082811 L21.6766172,14.9968871 C21.6766172,14.4226685 21.4679609,13.8962091 21.1226641,13.4871008 L22.6060313,7.6608247 C22.6932578,7.31832331 22.4841719,6.97053431 22.1389609,6.88397083 C21.7943516,6.7977485 21.4433828,7.00490384 21.3562422,7.34740523 L19.9830469,12.7408639 C19.7888281,12.6831265 19.5845547,12.6490128 19.3730625,12.6429577 L19.3730625,10.4841585 C19.3730625,10.2812673 19.2760391,10.0904013 19.1116406,9.96980939 C18.9472422,9.84921752 18.7347188,9.81305701 18.5394688,9.87267068 C15.0073516,10.9480193 11.9117109,10.89122 9.58735938,9.70798687 C7.84609375,8.82154279 7.12378906,7.59942007 7.118375,7.5900388 C6.97485938,7.33631828 6.67657031,7.21077992 6.39323438,7.2843802 C6.10955469,7.35798047 5.91172656,7.61229798 5.91172656,7.90320242 C5.91172656,9.48761247 5.57089844,9.83088141 3.88575,9.94371242 C3.54732813,9.96639802 3.28461719,10.2453627 3.28461719,10.5818942 L3.28461719,12.6430429 C3.04966406,12.6496951 2.82321875,12.6906315 2.60992188,12.7606499 C2.33157031,11.7137862 2.15488281,10.9370176 2.10469531,10.534732 C2.00440625,9.73433969 2.07392969,7.34791693 2.10916406,6.49601296 C2.10950781,6.48722869 2.10967969,6.4785297 2.10967969,6.46974543 C2.10967969,5.42245533 2.96819531,4.57046608 4.02359375,4.57046608 L5.00070313,4.57046608 C5.17163281,4.57046608 5.33551563,4.50309155 5.45651563,4.38309667 L7.76204688,2.09492133 C8.22894531,1.6316575 8.91739063,1.4383182 9.55917188,1.59029466 L17.6662578,3.50398704 C18.0934531,3.60496354 18.5328516,3.65613407 18.9723359,3.65613407 C20.244125,3.65613407 21.4924531,3.22323142 22.4873516,2.43725214 C22.5034219,2.4245448 22.5234453,2.40851136 22.5624609,2.43358492 C22.6013906,2.45848791 22.5951172,2.48304976 22.5901328,2.50257985 L22.1020078,4.41976888 C22.0147813,4.76227027 22.2238672,5.11005927 22.5690781,5.19662275 C22.9141172,5.28318622 23.2647422,5.07568974 23.3517969,4.73318835 L23.8400078,2.81582875 C23.9843828,2.24800648 23.7570781,1.67600529 23.2611328,1.35857746 C22.7649297,1.04097906 22.1460078,1.07168138 21.6844375,1.43661251 C20.9167578,2.04306853 19.9535703,2.37704149 18.97225,2.37704149 C18.6332266,2.37704149 18.2942031,2.3375549 17.9646328,2.25969042 L9.85789062,0.345742186 C8.78401563,0.0915099569 7.63176562,0.415078248 6.85059375,1.19022643 L4.73378125,3.29111765 L4.02359375,3.29111765 C2.26213281,3.29111765 0.828179688,4.70956462 0.820617187,6.45592938 C0.8105625,6.70410643 0.694460937,9.64700866 0.825515625,10.6921666 C0.891515625,11.2217816 1.11417969,12.1813142 1.48723438,13.5451793 C1.17055469,13.9455034 0.9810625,14.4495331 0.9810625,14.9969724 L0.9810625,15.8083664 C0.9810625,17.1059656 2.04359375,18.1618694 3.35027344,18.1633193 C3.70614062,20.9279775 5.47765625,23.2313334 7.90702344,24.3648458 L7.90702344,25.5861157 L6.56476562,25.5861157 C6.171,25.5861157 5.78299219,25.6293548 5.40478125,25.714042 C5.09016406,25.1681378 4.49865625,24.7986013 3.82078125,24.7986013 L2.25113281,24.7986013 C1.00985156,24.7986013 0,25.8007761 0,27.0326212 L0,30.5124728 C0,31.411539 0.538226563,32.1877105 1.31140625,32.5417253 L1.31140625,39.3602831 C1.31140625,39.7135303 1.59989844,39.9999147 1.9559375,39.9999147 L20.7014844,39.9999147 C21.0575234,39.9999147 21.3460156,39.7135303 21.3460156,39.3602831 L21.3460156,30.7995395 C21.3460156,29.23031 20.6427891,27.8219266 19.5338516,26.8653789 L30.0102344,26.8653789 L30.0102344,27.1843418 C30.0102344,29.0292098 32.8004531,30.6253891 33.1185938,30.8013304 C33.2161328,30.8552301 33.3242422,30.8822651 33.4322656,30.8822651 C33.5404609,30.8822651 33.6485703,30.8553153 33.7460234,30.8013304 C34.0640781,30.6253891 36.8533516,29.0291246 36.8533516,27.1843418 L36.8533516,26.8653789 L38.1956953,26.8653789 C40.3816875,26.8653789 42.1599922,28.6302503 42.1599922,30.7995395 L42.1599922,38.7207369 L40.3534141,38.7207369 L40.3534141,34.4352053 C40.3534141,34.0819581 40.0649219,33.7955737 39.7088828,33.7955737 C39.3528438,33.7955737 39.0643516,34.0819581 39.0643516,34.4352053 L39.0643516,38.7207369 L27.7999219,38.7207369 L27.7999219,31.3641209 C27.7999219,31.0108737 27.5114297,30.7244894 27.1553906,30.7244894 L23.2890625,30.7244894 C22.9330234,30.7244894 22.6445312,31.0108737 22.6445312,31.3641209 C22.6445312,31.7173681 22.9330234,32.0037525 23.2890625,32.0037525 L26.5108594,32.0037525 L26.5108594,39.3603684 C26.5108594,39.7136156 26.7993516,40 27.1553906,40 L42.8046094,40 C43.1606484,40 43.4491406,39.7136156 43.4491406,39.3603684 L43.4491406,30.7995395 C43.4491406,27.9248646 41.0924766,25.5861157 38.1957813,25.5861157 L36.8534375,25.5861157 L36.8534375,24.682956 L40.5410156,24.682956 C42.4483125,24.682956 44,23.1426378 44,21.2494137 L44,11.5833014 C44,11.2300542 43.7115078,10.9436698 43.3554688,10.9436698 C42.9994297,10.9436698 42.7109375,11.2300542 42.7109375,11.5833014 L42.7109375,13.0310008 C42.3543828,12.7971515 41.9311406,12.6557503 41.4757578,12.6428724 L41.4757578,9.55899535 C41.4757578,8.08895143 41.03,6.67613321 40.1866953,5.47319944 C40.0840859,5.32668116 39.9243281,5.22945717 39.7462656,5.20489531 C39.5681172,5.18024818 39.3878203,5.23082171 39.2487734,5.34399386 C36.4181641,7.64897019 32.8396406,8.91834037 29.1723438,8.91834037 C28.1560469,8.91834037 27.1429297,8.82299262 26.1610938,8.63494094 C25.9782188,8.59997441 25.7883828,8.64526033 25.6415156,8.75945589 C25.4946484,8.87365144 25.4048438,9.04541384 25.3953047,9.23031001 C25.3898906,9.33435674 25.3873125,9.44190013 25.3873125,9.55899535 L25.3873125,12.6429577 C24.9321875,12.6560061 24.5092031,12.7974074 24.1527344,13.0310861 L24.1527344,8.18898981 C24.1527344,4.37900303 27.2762188,1.27926314 31.1154766,1.27926314 L35.3908672,1.27926314 C36.1940391,1.27926314 36.9191797,1.75190823 37.2381797,2.48330562 L37.5114609,3.11014456 C37.6135547,3.34424971 37.8460156,3.49579975 38.1030547,3.49579975 L39.3929766,3.49579975 C41.2225859,3.49579975 42.7110234,4.97292226 42.7110234,6.78862309 L42.7110234,8.56338749 C42.7109375,8.91663469 42.9994297,9.20301906 43.3554688,9.20301906 Z M4.58296094,17.4905974 C4.56525781,17.1506546 4.28235156,16.8839708 3.93928906,16.8839708 L3.35302344,16.8839708 C2.75592969,16.8839708 2.270125,16.4014328 2.270125,15.8082811 L2.270125,14.9968871 C2.270125,14.4037354 2.75584375,13.9211974 3.35302344,13.9211974 L3.92923437,13.9211974 C4.28527344,13.9211974 4.57376562,13.634813 4.57376562,13.2815658 L4.57376562,11.1587566 C5.91696875,10.9684875 6.67296094,10.4491919 7.00141406,9.43695365 C7.46066406,9.87736131 8.08989844,10.3716686 8.91532812,10.8029508 C11.9248594,12.3753358 15.428875,12.0234532 18.084,11.3312012 L18.084,13.2815658 C18.084,13.634813 18.3724922,13.9211974 18.7285312,13.9211974 L19.303625,13.9211974 C19.9012344,13.9211974 20.3874687,14.4037354 20.3874687,14.9968871 L20.3874687,15.8082811 C20.3874687,16.4014328 19.9012344,16.8839708 19.303625,16.8839708 L18.7173594,16.8839708 C18.3743828,16.8839708 18.0914766,17.150484 18.0736875,17.4904268 C17.9837969,19.2071127 17.2425,20.8065328 15.9864375,21.9940301 C15.3616719,22.5847085 14.6402266,23.0434523 13.8595703,23.3564454 C13.8555312,23.3580658 13.8515781,23.3597714 13.8475391,23.3615624 C13.0558828,23.6771993 12.2035547,23.8429065 11.3287969,23.8429065 C10.4399453,23.8429065 9.59010937,23.6719969 8.81108594,23.361733 C8.79896875,23.3564454 8.78642187,23.35184 8.77396094,23.3472347 C6.4191875,22.3933308 4.72192187,20.1585433 4.58296094,17.4905974 Z M13.4603906,24.8368939 L13.4603906,26.2257473 L13.4603906,27.1843418 C13.4603906,27.7498614 13.2387578,28.2812673 12.8361406,28.6807386 C12.4336953,29.0802098 11.8982187,29.3001578 11.3282812,29.3001578 C10.1525703,29.3001578 9.19608594,28.3510298 9.19608594,27.1842565 L9.19608594,26.2257473 L9.19608594,24.8373204 C9.87610938,25.0222165 10.5910234,25.1221696 11.3288828,25.1221696 C12.0578047,25.1221696 12.7731484,25.0236664 13.4603906,24.8368939 Z M1.2890625,30.5125581 L1.2890625,27.0326212 C1.2890625,26.5061618 1.72064063,26.0778645 2.25113281,26.0778645 L3.82078125,26.0778645 C4.11623438,26.0778645 4.35651563,26.3164044 4.35651563,26.6096115 L4.35651563,30.9355678 C4.35651563,31.2287749 4.11614844,31.4673148 3.82078125,31.4673148 L2.25113281,31.4673148 C1.72064063,31.4673148 1.2890625,31.0390175 1.2890625,30.5125581 Z M20.0569531,30.7995395 L20.0569531,38.7207369 L18.2499453,38.7207369 L18.2499453,34.4352053 C18.2499453,34.0819581 17.9614531,33.7955737 17.6054141,33.7955737 C17.249375,33.7955737 16.9608828,34.0819581 16.9608828,34.4352053 L16.9608828,38.7207369 L5.69602344,38.7207369 L5.69602344,34.4352053 C5.69602344,34.0819581 5.40753125,33.7955737 5.05149219,33.7955737 C4.69545313,33.7955737 4.40696094,34.0819581 4.40696094,34.4352053 L4.40696094,38.7207369 L2.60046875,38.7207369 L2.60046875,32.746578 L3.82078125,32.746578 C4.82702344,32.746578 5.64557813,31.9341606 5.64557813,30.9355678 L5.64557813,26.97224 C5.94446875,26.9017952 6.25195313,26.8653789 6.56467969,26.8653789 L7.90702344,26.8653789 L7.90702344,27.1843418 C7.90702344,29.0564155 9.44178125,30.5795062 11.3282813,30.5795062 C12.2425703,30.5795062 13.1017734,30.2264296 13.7476797,29.5853482 C14.3936719,28.9442668 14.7493672,28.0915952 14.7493672,27.1843418 L14.7493672,26.8653789 L16.0925703,26.8653789 C18.2785625,26.8653789 20.0569531,28.6302503 20.0569531,30.7995395 Z M35.564375,27.1843418 C35.564375,27.8933947 34.4044766,28.8951431 33.4322656,29.4991258 C32.4593672,28.8949725 31.2992969,27.8933095 31.2992969,27.1843418 L31.2992969,24.8373204 C31.9791484,25.0222165 32.6938906,25.1220843 33.4315781,25.1220843 C34.1610156,25.1220843 34.8767891,25.0234958 35.564375,24.8366381 L35.564375,27.1843418 Z M42.7109375,17.774338 L42.7109375,21.2494137 C42.7109375,22.4373374 41.7375234,23.4036928 40.5410156,23.4036928 L38.4178438,23.4036928 C38.6112891,23.2517163 38.7988906,23.090785 38.9794453,22.9201313 C40.3260859,21.6461558 41.1758359,19.9750117 41.4098438,18.163234 C41.8901484,18.1627223 42.3371953,18.0193595 42.7109375,17.774338 Z M25.4566641,13.9211974 L26.0317578,13.9211974 C26.3877969,13.9211974 26.6762891,13.634813 26.6762891,13.2815658 L26.6762891,10.0186772 C27.4976797,10.1375634 28.3341953,10.1976888 29.1722578,10.1976888 C32.8908594,10.1976888 36.5251562,8.99032024 39.4871641,6.78418831 C39.9465,7.63361904 40.1866094,8.58078547 40.1866094,9.55908064 L40.1866094,13.2816511 C40.1866094,13.6348983 40.4751016,13.9212827 40.8311406,13.9212827 L41.4073516,13.9212827 C42.0044453,13.9212827 42.49025,14.4038207 42.49025,14.9969724 L42.49025,15.8083664 C42.49025,16.4015181 42.0045312,16.8840561 41.4073516,16.8840561 L40.8210859,16.8840561 C40.4781094,16.8840561 40.1952031,17.1505693 40.1774141,17.4905121 C40.0876094,19.2062599 39.3462266,20.8057652 38.0901641,21.9941154 C37.4684062,22.5818942 36.7507422,23.038847 35.9742969,23.3517547 C35.9628672,23.3561895 35.9516094,23.3609654 35.9404375,23.3660825 C35.1516172,23.6789902 34.3026406,23.8429918 33.4314922,23.8429918 C32.5429844,23.8429918 31.6934062,23.6721675 30.9146406,23.3619888 C30.9021797,23.3565306 30.889375,23.35184 30.8765703,23.3471494 C28.5223984,22.3931602 26.8255625,20.1584581 26.6866875,17.4906827 C26.6689844,17.1507398 26.3860781,16.8840561 26.0430156,16.8840561 L25.45675,16.8840561 C24.8591406,16.8840561 24.3729062,16.4015181 24.3729062,15.8083664 L24.3729062,14.9968871 L24.3728203,14.9968871 C24.3728203,14.4037354 24.8590547,13.9211974 25.4566641,13.9211974 Z M25.454,18.163234 C25.7277969,20.2907339 26.8402578,22.1449832 28.4449687,23.4036928 L26.3235156,23.4036928 C25.1264922,23.4036928 24.1527344,22.4372521 24.1527344,21.2494137 L24.1527344,17.7744233 C24.5264766,18.0193595 24.9736094,18.1627223 25.454,18.163234 Z" id="Shape"></path>
                </g>
            </g>
        </g>
    </g>
</svg>