<?xml version="1.0" encoding="UTF-8"?>
<svg width="40px" height="85px" viewBox="0 0 40 85" version="1.1" xmlns="http://www.w3.org/2000/svg" xmlns:xlink="http://www.w3.org/1999/xlink">
    <!-- Generator: Sketch 49 (51002) - http://www.bohemiancoding.com/sketch -->
    <title>Group 3</title>
    <desc>Created with Sketch.</desc>
    <defs></defs>
    <g id="chame-UI" stroke="none" stroke-width="1" fill="none" fill-rule="evenodd">
        <g id="1.1-ChaMe-Home" transform="translate(-706.000000, -1301.000000)" fill-rule="nonzero">
            <g id="Group-3" transform="translate(706.000000, 1301.000000)">
                <g id="fruit">
                    <rect id="Rectangle-path" fill="#09B5FF" transform="translate(26.250000, 9.375000) rotate(-0.309394) translate(-26.250000, -9.375000) " x="25.625" y="8.75" width="1.25" height="1.25"></rect>
                    <path d="M39.3334147,21.2846696 L29.8679034,21.2846696 L30.6678058,9.29750516 C30.679471,9.11235714 30.6145623,8.93055114 30.4884943,8.79486505 C30.3580936,8.6660301 30.1841148,8.59116881 30.0012204,8.58498607 L28.6680498,8.59233852 L28.6747157,9.92914731 L29.2919737,9.92914731 L29.1326598,12.3200298 L27.1995624,13.3954925 C25.1864748,14.509472 22.7698531,14.6159989 20.6670264,13.6835748 L20.6670264,9.96991998 L24.6698712,9.94919944 L24.6632053,8.61239065 L20.6690262,8.63311119 L20.6690262,5.6099181 L27.6928355,1.13160864 L26.9769229,0 L19.6444846,4.67883078 C19.4521747,4.80156653 19.3357723,5.01436978 19.3358556,5.24296409 L19.3358556,8.63979523 L10.0069943,8.68792035 C9.63887254,8.69000911 9.34215876,8.99104174 9.34424184,9.36016807 C9.34432516,9.37387036 9.3448251,9.3874891 9.34574165,9.40110784 L10.0876511,20.5567772 C9.69828196,21.2667062 9.38540348,22.0162382 9.15443167,22.7925899 C7.98457447,20.6940508 5.77542745,19.3929181 3.37780343,19.3904115 C3.0096817,19.3904115 2.71121813,19.6896896 2.71121813,20.0588159 C2.71021825,21.3559382 3.09042184,22.6246533 3.80441803,23.7062987 C3.51570327,23.848836 3.2467361,24.0285532 3.00451566,24.2410223 L2.81120593,24.4121338 C0.459326329,26.483519 -0.52380367,29.7093222 0.27151592,32.7451314 L0.678799541,34.3232342 C1.18998715,36.3050532 2.41233795,38.0281162 4.11171385,39.162482 C5.57711832,40.1487962 7.47188704,40.2225714 9.00911608,39.3529773 L8.9717873,39.2861368 C10.219635,39.6563493 11.5073945,39.8744998 12.8073191,39.9358259 C12.9406362,39.9425099 13.0739533,39.9425099 13.2119364,39.9451836 L13.2119364,39.9999927 L22.0021968,39.9999927 C31.9332346,40.0088491 39.9911677,31.9433803 40,21.9851574 C40,21.9744629 40,21.9637685 40,21.953074 C40,21.5839477 39.7015364,21.2846696 39.3334147,21.2846696 Z M29.6131845,22.9857588 L29.6131845,22.6214784 L36.2517075,22.6214784 C35.9950722,28.0403999 32.7101398,32.8499038 27.7640768,35.0484529 C26.5298942,35.5955419 25.2238869,35.9626631 23.8858836,36.1386205 C24.8860115,35.2652666 25.7686537,34.2651665 26.5115631,33.1635525 C28.5390656,30.1592419 29.6196837,26.6133566 29.6131845,22.9857588 Z M19.3358556,9.97660402 L19.3358556,13.2083393 C17.1494558,12.6005926 14.8126577,12.8748055 12.8253169,13.9723255 L11.0508669,14.9608956 L10.7229069,10.0207187 L19.3358556,9.97660402 Z M12.0993222,19.9097618 L12.1806456,19.8041539 L11.3294162,19.1457755 L11.1487716,16.4380693 L13.4698216,15.1406964 C15.5006571,14.0149363 17.942109,13.9157618 20.0570176,14.8733346 C22.5563792,16.0071156 25.4429435,15.8906461 27.8434005,14.5591846 L29.0212567,13.9034799 L28.7226265,18.397831 C28.5738947,18.2830326 28.4113312,18.1876178 28.2386856,18.1137591 L27.2428071,17.6973432 C26.7110387,17.4735113 26.1063625,17.5055111 25.6010075,17.7842358 C25.0829874,18.0685583 24.7233647,18.5752088 24.6251267,19.1591436 C23.9183796,23.2653189 21.78489,26.9881643 18.6025284,29.6677975 C18.3681404,27.6360153 17.3916762,25.7633133 15.8615297,24.410797 L15.6682199,24.2396854 C14.3226342,23.0384792 12.3015475,23.0099885 10.9227992,24.172845 L10.0835683,24.8746696 C10.2934593,23.0668864 10.9902909,21.3505074 12.0993222,19.9097618 Z M8.6224966,25.3158165 C6.26903386,24.9906378 4.41867638,23.1352307 4.09438263,20.7753455 C6.44734543,21.1013597 8.2972863,22.956349 8.6224966,25.3158165 Z M4.85087363,38.0509255 C3.42454773,37.0983657 2.3985063,35.6519386 1.96922536,33.9883636 L1.56127516,32.4109292 C0.89402327,29.8609664 1.72117231,27.1518399 3.69768106,25.4134036 L3.89099079,25.242292 C4.1277119,25.0398491 4.40276166,24.8872858 4.69955877,24.7937927 C5.93540792,26.0155524 7.60153789,26.6999149 9.33699272,26.6987452 C9.37948754,26.6944006 9.42148241,26.6858784 9.46231076,26.6733459 C9.8412645,26.6490326 10.2030537,26.5056599 10.4961846,26.263614 L11.7726954,25.1941669 C12.6475886,24.4568333 13.9295988,24.475298 14.7829947,25.2376132 L14.9763044,25.4087247 C16.4722885,26.7299931 17.3282673,28.6333582 17.325351,30.6323051 C14.7320009,32.4564642 11.6959548,33.5452115 8.53709036,33.7838318 L5.58478405,34.0064105 C5.23632658,34.0327289 4.96719277,34.3244039 4.96819264,34.6748149 L4.96819264,37.1098121 C4.96894255,37.3478476 5.09584373,37.5675856 5.3014853,37.6866451 L5.39414065,37.7414543 C5.9396574,38.0590299 6.50325527,38.3445221 7.08193464,38.5963435 C6.29744706,38.6836538 5.50737683,38.4904849 4.85087363,38.0509255 Z M12.8699782,38.6003539 L12.8693116,38.6010223 C10.5653428,38.4910698 8.31803376,37.8478141 6.30344633,36.7214691 L6.30344633,35.293089 L8.63649489,35.1166302 C17.3150189,34.4654372 24.4432322,27.9858414 25.938383,19.3890747 C25.9678794,19.2061826 26.0797824,19.0471859 26.2416793,18.9579539 C26.3914111,18.8744034 26.5712224,18.864795 26.7289532,18.9318861 L27.7248316,19.3489705 C28.0600407,19.4882492 28.2783474,19.8166029 28.2774309,20.1804655 L28.2774309,22.987764 C28.2833468,26.3486684 27.282469,29.633876 25.4044482,32.4176132 C22.6011237,36.5451775 17.8416213,38.8928644 12.8699782,38.6003539 Z M22.0021968,38.6631839 L19.8777894,38.6631925 C20.6141162,38.3453576 21.3244462,37.9701321 22.0021968,37.5409329 L22.0021968,37.6030945 C24.1728485,37.6071885 26.3200031,37.1530913 28.3040943,36.2702962 C33.7316818,33.8572728 37.3274095,28.5692749 37.5849614,22.6214784 L38.6534977,22.6214784 C38.304457,31.5870372 30.9501046,38.6722074 22.0021968,38.6631839 Z" id="Shape" fill="#00B2FF"></path>
                    <rect id="Rectangle-path" fill="#09B5FF" x="30.625" y="23.75" width="1.25" height="1.25"></rect>
                    <rect id="Rectangle-path" fill="#09B5FF" x="28.75" y="30.625" width="1.25" height="1.25"></rect>
                    <rect id="Rectangle-path" fill="#09B5FF" x="30.625" y="28.125" width="1.25" height="1.25"></rect>
                </g>
                <g id="fruit-copy" transform="translate(0.000000, 45.000000)" fill="#FFFFFF">
                    <rect id="Rectangle-path" transform="translate(26.250000, 9.375000) rotate(-0.309394) translate(-26.250000, -9.375000) " x="25.625" y="8.75" width="1.25" height="1.25"></rect>
                    <path d="M39.3334147,21.2846696 L29.8679034,21.2846696 L30.6678058,9.29750516 C30.679471,9.11235714 30.6145623,8.93055114 30.4884943,8.79486505 C30.3580936,8.6660301 30.1841148,8.59116881 30.0012204,8.58498607 L28.6680498,8.59233852 L28.6747157,9.92914731 L29.2919737,9.92914731 L29.1326598,12.3200298 L27.1995624,13.3954925 C25.1864748,14.509472 22.7698531,14.6159989 20.6670264,13.6835748 L20.6670264,9.96991998 L24.6698712,9.94919944 L24.6632053,8.61239065 L20.6690262,8.63311119 L20.6690262,5.6099181 L27.6928355,1.13160864 L26.9769229,0 L19.6444846,4.67883078 C19.4521747,4.80156653 19.3357723,5.01436978 19.3358556,5.24296409 L19.3358556,8.63979523 L10.0069943,8.68792035 C9.63887254,8.69000911 9.34215876,8.99104174 9.34424184,9.36016807 C9.34432516,9.37387036 9.3448251,9.3874891 9.34574165,9.40110784 L10.0876511,20.5567772 C9.69828196,21.2667062 9.38540348,22.0162382 9.15443167,22.7925899 C7.98457447,20.6940508 5.77542745,19.3929181 3.37780343,19.3904115 C3.0096817,19.3904115 2.71121813,19.6896896 2.71121813,20.0588159 C2.71021825,21.3559382 3.09042184,22.6246533 3.80441803,23.7062987 C3.51570327,23.848836 3.2467361,24.0285532 3.00451566,24.2410223 L2.81120593,24.4121338 C0.459326329,26.483519 -0.52380367,29.7093222 0.27151592,32.7451314 L0.678799541,34.3232342 C1.18998715,36.3050532 2.41233795,38.0281162 4.11171385,39.162482 C5.57711832,40.1487962 7.47188704,40.2225714 9.00911608,39.3529773 L8.9717873,39.2861368 C10.219635,39.6563493 11.5073945,39.8744998 12.8073191,39.9358259 C12.9406362,39.9425099 13.0739533,39.9425099 13.2119364,39.9451836 L13.2119364,39.9999927 L22.0021968,39.9999927 C31.9332346,40.0088491 39.9911677,31.9433803 40,21.9851574 C40,21.9744629 40,21.9637685 40,21.953074 C40,21.5839477 39.7015364,21.2846696 39.3334147,21.2846696 Z M29.6131845,22.9857588 L29.6131845,22.6214784 L36.2517075,22.6214784 C35.9950722,28.0403999 32.7101398,32.8499038 27.7640768,35.0484529 C26.5298942,35.5955419 25.2238869,35.9626631 23.8858836,36.1386205 C24.8860115,35.2652666 25.7686537,34.2651665 26.5115631,33.1635525 C28.5390656,30.1592419 29.6196837,26.6133566 29.6131845,22.9857588 Z M19.3358556,9.97660402 L19.3358556,13.2083393 C17.1494558,12.6005926 14.8126577,12.8748055 12.8253169,13.9723255 L11.0508669,14.9608956 L10.7229069,10.0207187 L19.3358556,9.97660402 Z M12.0993222,19.9097618 L12.1806456,19.8041539 L11.3294162,19.1457755 L11.1487716,16.4380693 L13.4698216,15.1406964 C15.5006571,14.0149363 17.942109,13.9157618 20.0570176,14.8733346 C22.5563792,16.0071156 25.4429435,15.8906461 27.8434005,14.5591846 L29.0212567,13.9034799 L28.7226265,18.397831 C28.5738947,18.2830326 28.4113312,18.1876178 28.2386856,18.1137591 L27.2428071,17.6973432 C26.7110387,17.4735113 26.1063625,17.5055111 25.6010075,17.7842358 C25.0829874,18.0685583 24.7233647,18.5752088 24.6251267,19.1591436 C23.9183796,23.2653189 21.78489,26.9881643 18.6025284,29.6677975 C18.3681404,27.6360153 17.3916762,25.7633133 15.8615297,24.410797 L15.6682199,24.2396854 C14.3226342,23.0384792 12.3015475,23.0099885 10.9227992,24.172845 L10.0835683,24.8746696 C10.2934593,23.0668864 10.9902909,21.3505074 12.0993222,19.9097618 Z M8.6224966,25.3158165 C6.26903386,24.9906378 4.41867638,23.1352307 4.09438263,20.7753455 C6.44734543,21.1013597 8.2972863,22.956349 8.6224966,25.3158165 Z M4.85087363,38.0509255 C3.42454773,37.0983657 2.3985063,35.6519386 1.96922536,33.9883636 L1.56127516,32.4109292 C0.89402327,29.8609664 1.72117231,27.1518399 3.69768106,25.4134036 L3.89099079,25.242292 C4.1277119,25.0398491 4.40276166,24.8872858 4.69955877,24.7937927 C5.93540792,26.0155524 7.60153789,26.6999149 9.33699272,26.6987452 C9.37948754,26.6944006 9.42148241,26.6858784 9.46231076,26.6733459 C9.8412645,26.6490326 10.2030537,26.5056599 10.4961846,26.263614 L11.7726954,25.1941669 C12.6475886,24.4568333 13.9295988,24.475298 14.7829947,25.2376132 L14.9763044,25.4087247 C16.4722885,26.7299931 17.3282673,28.6333582 17.325351,30.6323051 C14.7320009,32.4564642 11.6959548,33.5452115 8.53709036,33.7838318 L5.58478405,34.0064105 C5.23632658,34.0327289 4.96719277,34.3244039 4.96819264,34.6748149 L4.96819264,37.1098121 C4.96894255,37.3478476 5.09584373,37.5675856 5.3014853,37.6866451 L5.39414065,37.7414543 C5.9396574,38.0590299 6.50325527,38.3445221 7.08193464,38.5963435 C6.29744706,38.6836538 5.50737683,38.4904849 4.85087363,38.0509255 Z M12.8699782,38.6003539 L12.8693116,38.6010223 C10.5653428,38.4910698 8.31803376,37.8478141 6.30344633,36.7214691 L6.30344633,35.293089 L8.63649489,35.1166302 C17.3150189,34.4654372 24.4432322,27.9858414 25.938383,19.3890747 C25.9678794,19.2061826 26.0797824,19.0471859 26.2416793,18.9579539 C26.3914111,18.8744034 26.5712224,18.864795 26.7289532,18.9318861 L27.7248316,19.3489705 C28.0600407,19.4882492 28.2783474,19.8166029 28.2774309,20.1804655 L28.2774309,22.987764 C28.2833468,26.3486684 27.282469,29.633876 25.4044482,32.4176132 C22.6011237,36.5451775 17.8416213,38.8928644 12.8699782,38.6003539 Z M22.0021968,38.6631839 L19.8777894,38.6631925 C20.6141162,38.3453576 21.3244462,37.9701321 22.0021968,37.5409329 L22.0021968,37.6030945 C24.1728485,37.6071885 26.3200031,37.1530913 28.3040943,36.2702962 C33.7316818,33.8572728 37.3274095,28.5692749 37.5849614,22.6214784 L38.6534977,22.6214784 C38.304457,31.5870372 30.9501046,38.6722074 22.0021968,38.6631839 Z" id="Shape"></path>
                    <rect id="Rectangle-path" x="30.625" y="23.75" width="1.25" height="1.25"></rect>
                    <rect id="Rectangle-path" x="28.75" y="30.625" width="1.25" height="1.25"></rect>
                    <rect id="Rectangle-path" x="30.625" y="28.125" width="1.25" height="1.25"></rect>
                </g>
            </g>
        </g>
    </g>
</svg>