<svg xmlns="http://www.w3.org/2000/svg" width="14" height="16" viewBox="0 0 14 16">
    <path fill="#FFF" fill-rule="nonzero" d="M12.629 6H3.81v-.923C3.81 3.38 5.15 2 6.8 2c1.086 0 2.031.604 2.554 1.499l.02-.015c.177.258.454.438.783.438.536 0 .972-.448.972-1a1.02 1.02 0 0 0-.075-.382l-.01-.022a.939.939 0 0 0-.178-.267C9.981.9 8.502 0 6.8 0 4.076 0 1.868 2.273 1.868 5.077V6H.971C.435 6 0 6.448 0 7v8c0 .552.435 1 .971 1H12.63c.536 0 .971-.448.971-1V7c0-.552-.435-1-.971-1zM6.8 12.8a2 2 0 1 1-.001-3.999A2 2 0 0 1 6.8 12.8z"/>
</svg>
