<?xml version="1.0" encoding="UTF-8"?>
<svg width="40px" height="85px" viewBox="0 0 40 85" version="1.1" xmlns="http://www.w3.org/2000/svg" xmlns:xlink="http://www.w3.org/1999/xlink">
    <!-- Generator: Sketch 49 (51002) - http://www.bohemiancoding.com/sketch -->
    <title>Group 5</title>
    <desc>Created with Sketch.</desc>
    <defs></defs>
    <g id="chame-UI" stroke="none" stroke-width="1" fill="none" fill-rule="evenodd">
        <g id="1.1-ChaMe-Home" transform="translate(-363.000000, -1308.000000)" fill-rule="nonzero">
            <g id="Group-5" transform="translate(363.000000, 1308.000000)">
                <g id="book" fill="#00B2FF">
                    <path d="M21.2903226,0 L12.0645161,0 C11.6725995,0 11.3548387,0.298502583 11.3548387,0.666666667 L11.3548387,5.33333333 L0.709677419,5.33333333 C0.317760815,5.33333333 0,5.63183592 0,6 L0,39.3333333 C0,39.7014974 0.317760815,40 0.709677419,40 L21.2903226,40 C21.6822392,40 22,39.7014974 22,39.3333333 L22,0.666666667 C22,0.298502583 21.6822392,0 21.2903226,0 Z M20.5806452,34.6666667 L12.7741935,34.6666667 L12.7741935,33.3333333 L20.5806452,33.3333333 L20.5806452,34.6666667 Z M1.41935484,10 L11.3548387,10 L11.3548387,30 L1.41935484,30 L1.41935484,10 Z M20.5806452,7.33333333 L12.7741935,7.33333333 L12.7741935,5.33333333 L20.5806452,5.33333333 L20.5806452,7.33333333 Z M1.41935484,31.3333333 L11.3548387,31.3333333 L11.3548387,33.3333333 L1.41935484,33.3333333 L1.41935484,31.3333333 Z M12.7741935,32 L12.7741935,8.66666667 L20.5806452,8.66666667 L20.5806452,32 L12.7741935,32 Z M20.5806452,1.33333333 L20.5806452,4 L12.7741935,4 L12.7741935,1.33333333 L20.5806452,1.33333333 Z M11.3548387,6.66666667 L11.3548387,8.66666667 L1.41935484,8.66666667 L1.41935484,6.66666667 L11.3548387,6.66666667 Z M1.41935484,34.6666667 L11.3548387,34.6666667 L11.3548387,38.6666667 L1.41935484,38.6666667 L1.41935484,34.6666667 Z M12.7741935,38.6666667 L12.7741935,36 L20.5806452,36 L20.5806452,38.6666667 L12.7741935,38.6666667 Z" id="Shape"></path>
                    <path d="M39.9801521,36.3650442 L32.5318906,4.51777305 C32.4903699,4.33928121 32.3867198,4.18681941 32.2436705,4.09385498 C32.1009242,4.00122849 31.9309017,3.97587451 31.7711835,4.02354001 L22.4608565,6.79286794 C22.1311158,6.89090319 21.93412,7.26749388 22.0201919,7.6359714 L29.4684535,39.4832426 C29.5099742,39.6617344 29.6139273,39.8141962 29.7569766,39.9068226 C29.8997229,39.999111 30.0697454,40.0241269 30.2291606,39.9761235 L39.5394875,37.2067956 C39.8686222,37.1087602 40.0653149,36.7328456 39.9801521,36.3650442 Z M24.366261,12.1817664 L32.4773378,9.7697602 L32.7691947,11.0158225 L24.6587241,13.4315473 L24.366261,12.1817664 Z M33.0825697,12.3592441 L36.6824415,27.7619404 L28.5743954,30.1749607 L24.9745236,14.7712503 L33.0825697,12.3592441 Z M36.9985441,29.1023195 L37.634083,31.8192492 L29.5230063,34.2312554 L28.8898918,31.5153398 L36.9985441,29.1023195 Z M31.4881156,5.54038253 L32.1639629,8.43073337 L24.052886,10.8420634 L23.3776449,7.9530649 L31.4881156,5.54038253 Z M30.5122285,38.4606331 L29.8363812,35.5702822 L37.947458,33.1576 L38.6226992,36.0465986 L30.5122285,38.4606331 Z" id="Shape"></path>
                    <path d="M9.2,14 L2.8,14 C2.3582031,14 2,14.1791016 2,14.4 L2,17.6 C2,17.8208985 2.3582031,18 2.8,18 L9.2,18 C9.6417969,18 10,17.8208985 10,17.6 L10,14.4 C10,14.1791016 9.6417969,14 9.2,14 Z M8.4,17.2 L3.6,17.2 L3.6,14.8 L8.4,14.8 L8.4,17.2 Z" id="Shape"></path>
                </g>
                <g id="book-copy" transform="translate(0.000000, 45.000000)" fill="#FFFFFF">
                    <path d="M21.2903226,0 L12.0645161,0 C11.6725995,0 11.3548387,0.298502583 11.3548387,0.666666667 L11.3548387,5.33333333 L0.709677419,5.33333333 C0.317760815,5.33333333 0,5.63183592 0,6 L0,39.3333333 C0,39.7014974 0.317760815,40 0.709677419,40 L21.2903226,40 C21.6822392,40 22,39.7014974 22,39.3333333 L22,0.666666667 C22,0.298502583 21.6822392,0 21.2903226,0 Z M20.5806452,34.6666667 L12.7741935,34.6666667 L12.7741935,33.3333333 L20.5806452,33.3333333 L20.5806452,34.6666667 Z M1.41935484,10 L11.3548387,10 L11.3548387,30 L1.41935484,30 L1.41935484,10 Z M20.5806452,7.33333333 L12.7741935,7.33333333 L12.7741935,5.33333333 L20.5806452,5.33333333 L20.5806452,7.33333333 Z M1.41935484,31.3333333 L11.3548387,31.3333333 L11.3548387,33.3333333 L1.41935484,33.3333333 L1.41935484,31.3333333 Z M12.7741935,32 L12.7741935,8.66666667 L20.5806452,8.66666667 L20.5806452,32 L12.7741935,32 Z M20.5806452,1.33333333 L20.5806452,4 L12.7741935,4 L12.7741935,1.33333333 L20.5806452,1.33333333 Z M11.3548387,6.66666667 L11.3548387,8.66666667 L1.41935484,8.66666667 L1.41935484,6.66666667 L11.3548387,6.66666667 Z M1.41935484,34.6666667 L11.3548387,34.6666667 L11.3548387,38.6666667 L1.41935484,38.6666667 L1.41935484,34.6666667 Z M12.7741935,38.6666667 L12.7741935,36 L20.5806452,36 L20.5806452,38.6666667 L12.7741935,38.6666667 Z" id="Shape"></path>
                    <path d="M39.9801521,36.3650442 L32.5318906,4.51777305 C32.4903699,4.33928121 32.3867198,4.18681941 32.2436705,4.09385498 C32.1009242,4.00122849 31.9309017,3.97587451 31.7711835,4.02354001 L22.4608565,6.79286794 C22.1311158,6.89090319 21.93412,7.26749388 22.0201919,7.6359714 L29.4684535,39.4832426 C29.5099742,39.6617344 29.6139273,39.8141962 29.7569766,39.9068226 C29.8997229,39.999111 30.0697454,40.0241269 30.2291606,39.9761235 L39.5394875,37.2067956 C39.8686222,37.1087602 40.0653149,36.7328456 39.9801521,36.3650442 Z M24.366261,12.1817664 L32.4773378,9.7697602 L32.7691947,11.0158225 L24.6587241,13.4315473 L24.366261,12.1817664 Z M33.0825697,12.3592441 L36.6824415,27.7619404 L28.5743954,30.1749607 L24.9745236,14.7712503 L33.0825697,12.3592441 Z M36.9985441,29.1023195 L37.634083,31.8192492 L29.5230063,34.2312554 L28.8898918,31.5153398 L36.9985441,29.1023195 Z M31.4881156,5.54038253 L32.1639629,8.43073337 L24.052886,10.8420634 L23.3776449,7.9530649 L31.4881156,5.54038253 Z M30.5122285,38.4606331 L29.8363812,35.5702822 L37.947458,33.1576 L38.6226992,36.0465986 L30.5122285,38.4606331 Z" id="Shape"></path>
                    <path d="M9.2,14 L2.8,14 C2.3582031,14 2,14.1791016 2,14.4 L2,17.6 C2,17.8208985 2.3582031,18 2.8,18 L9.2,18 C9.6417969,18 10,17.8208985 10,17.6 L10,14.4 C10,14.1791016 9.6417969,14 9.2,14 Z M8.4,17.2 L3.6,17.2 L3.6,14.8 L8.4,14.8 L8.4,17.2 Z" id="Shape"></path>
                </g>
            </g>
        </g>
    </g>
</svg>