<?xml version="1.0" encoding="UTF-8"?>
<svg width="40px" height="85px" viewBox="0 0 40 85" version="1.1" xmlns="http://www.w3.org/2000/svg" xmlns:xlink="http://www.w3.org/1999/xlink">
    <!-- Generator: Sketch 49 (51002) - http://www.bohemiancoding.com/sketch -->
    <title>Group</title>
    <desc>Created with Sketch.</desc>
    <defs></defs>
    <g id="chame-UI" stroke="none" stroke-width="1" fill="none" fill-rule="evenodd">
        <g id="1.1-ChaMe-Home" transform="translate(-89.000000, -1347.000000)" fill-rule="nonzero">
            <g id="Group" transform="translate(89.000000, 1347.000000)">
                <g id="family" fill="#00B2FF">
                    <path d="M25.9999726,17.3333333 C25.6323588,17.3333333 25.3333333,17.6324136 25.3333333,18.0000274 C25.3333333,18.3676412 25.6323588,18.6666667 25.9999726,18.6666667 C26.3675864,18.6666667 26.6666667,18.3675864 26.6666667,18.0000274 C26.6666667,17.6324136 26.3675864,17.3333333 25.9999726,17.3333333 Z" id="Shape"></path>
                    <path d="M32.6666941,17.3333333 C32.2990803,17.3333333 32,17.6324136 32,18.0000274 C32,18.3676412 32.2990803,18.6666667 32.6666941,18.6666667 C33.0343079,18.6666667 33.3333333,18.3675864 33.3333333,18.0000274 C33.3333333,17.6324136 33.0343079,17.3333333 32.6666941,17.3333333 Z" id="Shape"></path>
                    <path d="M7.33336075,17.3333333 C6.96574695,17.3333333 6.66666667,17.6324136 6.66666667,18.0000274 C6.66666667,18.3676412 6.96574695,18.6666667 7.33336075,18.6666667 C7.70097455,18.6666667 8,18.3675864 8,18.0000274 C8,17.6324136 7.70097455,17.3333333 7.33336075,17.3333333 Z" id="Shape"></path>
                    <path d="M12.6666667,17.3333333 C12.299068,17.3333333 12,17.6324136 12,18.0000274 C12,18.3676412 12.299068,18.6666667 12.6666667,18.6666667 C13.0342654,18.6666667 13.3333333,18.3675864 13.3333333,18.0000274 C13.3332785,17.6324136 13.0342654,17.3333333 12.6666667,17.3333333 Z" id="Shape"></path>
                    <path d="M39.6736487,30.6685908 C39.5927255,30.3521782 39.2732546,30.1616205 38.9592569,30.2435248 C38.64565,30.3252713 38.4570637,30.6479963 38.5380652,30.9644878 C38.683336,31.5322945 38.7743453,32.1155668 38.8100767,32.7049148 L27.7070188,32.7049148 C27.5546329,32.6394229 27.393021,32.5916848 27.2249978,32.5633576 C27.225076,32.5498647 27.2255451,32.5364507 27.2255451,32.5228789 C27.2255451,29.8898686 25.8697879,27.5705092 23.8259877,26.2379467 C24.7231018,25.4716129 25.7443764,24.8952054 26.8414921,24.5301868 C27.2712062,25.7209554 28.4049914,26.5551484 29.7069562,26.5551484 C31.007201,26.5551484 32.1397352,25.7232437 32.5707785,24.5350001 C34.7411629,25.2591982 36.6000516,26.7928918 37.7269564,28.8864226 C37.8896629,29.1887899 38.2852876,29.2863965 38.5688707,29.0953653 C38.8174262,28.9279271 38.8999914,28.5861068 38.7576134,28.3214565 C38.2988139,27.4691941 37.7322731,26.6995461 37.0808215,26.0247431 C37.6227335,25.6164051 38.0903681,24.9942323 38.4769232,24.1643002 C40.0108679,20.8710845 40.0071931,14.5792875 38.9281386,11.7385181 C38.2092901,9.84603946 36.9557228,8.2386478 35.3031689,7.09017273 C33.6495203,5.9409086 31.7143996,5.33341224 29.7070344,5.33341224 C27.3113941,5.33341224 24.9994918,6.21234482 23.1970539,7.80829513 C22.9536587,8.02386599 22.9294208,8.39772205 23.1430269,8.64343496 C23.3565548,8.88914786 23.7270815,8.91352978 23.9705549,8.69795892 C25.5589176,7.29154053 27.5962282,6.51700042 29.7070344,6.51700042 C31.4756956,6.51700042 33.1808692,7.05229791 34.6380347,8.06497596 C36.0945746,9.07725948 37.1994308,10.4940145 37.8330557,12.1621637 C38.8107803,14.7363891 38.810233,20.6664026 37.4154606,23.6608018 C37.0615094,24.4205865 36.6493874,24.9370255 36.1873822,25.2027805 C35.1833087,24.3817649 34.0334951,23.7560412 32.7963471,23.3634845 C35.215287,22.1956775 36.8902806,19.7014626 36.8902806,16.8195832 L36.8902806,15.6223443 C36.8902806,15.3341801 36.6846496,15.0879148 36.4031775,15.0390721 C33.5004183,14.5354158 31.4914893,11.562479 31.4719427,11.5331261 C31.2155685,11.1460927 30.6153293,11.2077971 30.4413639,11.6386232 C30.427603,11.6725527 29.0035887,15.0305502 23.1098757,15.0305502 C22.7859483,15.0305502 22.5234755,15.2955162 22.5234755,15.6223443 L22.5234755,16.8195832 C22.5234755,19.6995689 24.1962799,22.1924423 26.6127178,23.3611962 C25.3851085,23.7498866 24.2384225,24.3707969 23.2256702,25.2023071 C22.7639778,24.9363943 22.3520903,24.4201131 21.9983737,23.6607229 C20.6036794,20.6663237 20.6031321,14.7363102 21.5808567,12.1621637 C21.8219845,11.5273659 22.1355132,10.9216844 22.5126076,10.362005 C22.6947044,10.0917524 22.6251964,9.72365644 22.357407,9.53988465 C22.0896958,9.35619176 21.7248766,9.42618127 21.5427798,9.69651282 C21.1148641,10.3315473 20.7593492,11.0185808 20.4857739,11.7384392 C19.4067975,14.5791297 19.4030446,20.8709267 20.9370675,24.1641424 C21.1324561,24.5836061 21.348955,24.9487825 21.5848443,25.2614076 C21.0714704,25.1340535 20.5373771,25.0605132 19.9886629,25.0478883 C19.9301793,24.5846319 19.8902259,23.9290818 20.0016419,23.4183241 C20.0713062,23.0991498 19.8713047,22.7834474 19.5550395,22.7131422 C19.2389307,22.642916 18.9259494,22.8446783 18.856285,23.1638526 C18.7472146,23.6638003 18.7442435,24.2185875 18.7759091,24.686815 C17.8550262,24.091549 17.6787934,23.1917853 17.6687855,23.1363934 C17.6149149,22.8161144 17.3149125,22.5992021 16.9963799,22.6515167 C16.6767527,22.7040681 16.4597847,23.0081713 16.511857,23.3307385 C16.5221776,23.3949679 16.7135005,24.4910495 17.7034222,25.3560157 C17.5212472,25.4108553 17.3420433,25.4724808 17.1659669,25.5407344 C16.0611889,24.5391032 14.7743923,23.8018855 13.3857966,23.3619064 C14.6137968,22.7683763 15.6496141,21.8327104 16.3718246,20.6781596 C16.6712797,20.8339987 17.0057623,20.9180335 17.3486892,20.9180335 C18.5276663,20.9180335 19.4868607,19.9500162 19.4868607,18.7601944 C19.4868607,18.2993052 19.3424499,17.8720298 19.0975692,17.5210565 C20.6279955,13.036362 19.9528534,10.4093485 19.1007748,8.98785912 C18.2508073,7.56999938 16.838521,6.65855757 15.1241214,6.42152431 C13.9049562,6.25290245 12.907685,6.58130871 12.3485719,6.83893641 C11.5331629,5.85916211 10.6050086,5.33333333 8.68005222,5.33333333 C6.47080899,5.33333333 3.33849365,6.48969899 1.6817176,9.02865346 C-0.156529762,11.8456722 0.509542685,15.1580621 1.46811156,17.5508829 C1.2357407,17.8960961 1.09977404,18.3124035 1.09977404,18.7602733 C1.09977404,19.9500951 2.0589684,20.9181124 3.23802375,20.9181124 C3.5808724,20.9181124 3.91543327,20.8339987 4.21481012,20.6782385 C4.93608237,21.831369 5.97025778,22.766167 7.19622514,23.3598548 C5.56845635,23.8747157 4.08603663,24.7984668 2.86624602,26.081003 C2.66264787,26.2950746 2.64974706,26.6398144 2.83762969,26.8683258 C3.05819435,27.136448 3.47313114,27.1520714 3.71238242,26.9005983 C4.76274247,25.7961527 6.03304169,24.9924964 7.42750138,24.5293188 C7.85698089,25.7205609 8.99084433,26.5552273 10.2932001,26.5552273 C11.5946176,26.5552273 12.7279337,25.7217445 13.1580388,24.5318438 C14.1910414,24.8757946 15.1579762,25.4065944 16.0163879,26.1067263 C13.8564023,27.4145912 12.4075247,29.8010995 12.4075247,32.5229578 C12.4075247,32.5365296 12.4079938,32.5499436 12.408072,32.5634365 C12.2400488,32.5917637 12.0784369,32.6395018 11.926051,32.7049937 L1.19015786,32.7049937 C1.27678871,31.2886332 1.6858615,29.9085693 2.3862579,28.6826087 C2.54802617,28.3994944 2.45177835,28.0375531 2.1712445,27.8742969 C1.89078882,27.7111195 1.53206827,27.8081737 1.3703,28.0913669 C0.473811366,29.6603314 0,31.452205 0,33.2733527 L0,33.2967089 C0,33.623537 0.262550919,33.888503 0.586400206,33.888503 L10.7770975,33.888503 C10.6781132,34.1368198 10.6229916,34.4076247 10.6229916,34.6912914 C10.6229916,35.8811131 11.5821859,36.8491304 12.7611631,36.8491304 C13.0700005,36.8491304 13.3703938,36.7822972 13.64522,36.6555743 C14.9740029,38.6698836 17.2440754,40 19.8164176,40 C22.388838,40 24.6589105,38.6698836 25.9876934,36.6555743 C26.2625196,36.7822972 26.5629129,36.8491304 26.8717503,36.8491304 C28.0507275,36.8491304 29.01,35.8811131 29.01,34.6912914 C29.01,34.4076247 28.9549566,34.1368198 28.8558941,33.888503 L39.4135998,33.888503 C39.7375272,33.888503 40,33.623537 40,33.2967089 L40,33.2733527 C40.0000781,32.3914217 39.890304,31.5150141 39.6736487,30.6685908 Z M17.3485328,19.7346031 C17.1943486,19.7346031 17.047514,19.6975173 16.9149094,19.6294216 C17.1570536,19.0503313 17.326406,18.4330506 17.4120986,17.7893365 C17.9147608,17.8226348 18.3139039,18.2447812 18.3139039,18.7603522 C18.3139821,19.2975434 17.8808278,19.7346031 17.3485328,19.7346031 Z M2.66108413,9.67970586 C4.07907802,7.50671686 6.77503342,6.51700042 8.67989585,6.51700042 C10.5401137,6.51700042 11.0686557,7.05663773 11.7179962,7.94551246 C11.9032987,8.19927376 12.2558425,8.25987348 12.5162824,8.08604383 C12.5265248,8.07910011 13.5628113,7.40019393 14.9647769,7.59430239 C16.3216288,7.78186166 17.4340691,8.49446066 18.0971704,9.60064217 C19.084512,11.2478024 19.0887341,13.7088768 18.1174208,16.7473843 C17.9165591,16.6689519 17.701233,16.6201881 17.4765244,16.6066952 L17.4765244,15.6223443 C17.4765244,15.3341801 17.2708934,15.0879148 16.9894995,15.0390721 C14.0866621,14.5354158 12.0777332,11.562479 12.0581865,11.5331261 C11.802516,11.1469607 11.2033714,11.2031417 11.0290933,11.6349146 C11.0255749,11.6433576 10.6613812,12.491359 9.59225638,13.3261043 C8.1642546,14.4411233 6.12545836,15.0304713 3.69619778,15.0304713 C3.37234849,15.0304713 3.10979757,15.2954373 3.10979757,15.6222654 L3.10979757,16.6066163 C2.86765338,16.6211349 2.63629895,16.676448 2.42230197,16.7659272 C1.35982298,13.9343109 1.43886973,11.5526947 2.66108413,9.67970586 Z M3.23786738,19.7346031 C2.70549418,19.7346031 2.27241808,19.2975434 2.27241808,18.7603522 C2.27241808,18.2447812 2.67156115,17.8226348 3.17422341,17.7893365 C3.25983784,18.4326561 3.42903384,19.0495423 3.67094348,19.6283169 C3.53755697,19.6966494 3.38970594,19.7346031 3.23786738,19.7346031 Z M4.29737527,17.2227134 C4.29714071,17.2198727 4.29698433,17.2170321 4.29674977,17.2142704 C4.2883838,17.0836812 4.28267617,16.9523818 4.28267617,16.8196621 L4.28267617,16.2037228 C8.73087357,16.0429916 10.7970351,14.0684508 11.6313654,12.9109805 C12.4384084,13.8786822 14.0897114,15.5365736 16.3038022,16.101303 L16.3038022,16.8196621 C16.3038022,16.9523818 16.2980164,17.0836812 16.2897286,17.2142704 C16.289494,17.217111 16.2893377,17.2199517 16.2891031,17.2227923 C16.082612,20.3800532 13.4731311,22.8854727 10.2932783,22.8854727 C7.11334724,22.8853938 4.50386633,20.3800532 4.29737527,17.2227134 Z M10.2932001,25.3716391 C9.5310362,25.3716391 8.86285271,24.9071991 8.57192002,24.231607 C9.13283137,24.1244528 9.70828543,24.0690609 10.2932001,24.0690609 C10.876551,24.0690609 11.4520833,24.1246106 12.0139329,24.2326327 C11.7227656,24.9076725 11.0549731,25.3716391 10.2932001,25.3716391 Z M29.7068781,25.3716391 C28.9450269,25.3716391 28.2769998,24.9075147 27.9858325,24.2322382 C28.5472912,24.1246106 29.1228234,24.0689819 29.7068781,24.0689819 C30.2906981,24.0689819 30.8658394,24.1263465 31.4265944,24.2348421 C31.1348798,24.9086983 30.4677128,25.3716391 29.7068781,25.3716391 Z M23.6962759,16.8195832 L23.6962759,16.2036439 C28.1444733,16.0429127 30.2107131,14.0683719 31.0449651,12.9109016 C31.8520082,13.8786033 33.5033894,15.5364947 35.717402,16.1012241 L35.717402,16.8195832 C35.717402,20.1643245 33.0211338,22.8853938 29.7068781,22.8853938 C26.3926223,22.8853938 23.6962759,20.1643245 23.6962759,16.8195832 Z M12.7611631,35.6655423 C12.2288681,35.6655423 11.795792,35.2284826 11.795792,34.6912914 C11.795792,34.2424747 12.0984527,33.8646734 12.5082291,33.7520747 C12.6155795,34.4044685 12.8065896,35.028614 13.0702351,35.6126753 C12.9715635,35.6467627 12.8676534,35.6655423 12.7611631,35.6655423 Z M19.8164958,38.8164118 C16.377845,38.8164118 13.5803251,35.9931595 13.5803251,32.5228789 C13.5803251,29.0525984 16.377845,26.229346 19.8164958,26.229346 C23.2551466,26.229346 26.0526665,29.0525984 26.0526665,32.5228789 C26.0526665,35.9931595 23.2551466,38.8164118 19.8164958,38.8164118 Z M26.8718285,35.6655423 C26.7654164,35.6655423 26.6615063,35.6467627 26.5628347,35.6126753 C26.8264802,35.028614 27.0174903,34.4043896 27.1248407,33.7520747 C27.5346171,33.8646734 27.8372778,34.2425536 27.8372778,34.6912914 C27.8372778,35.2284826 27.4042017,35.6655423 26.8718285,35.6655423 Z" id="Shape"></path>
                    <path d="M16.6666667,32 C16.299068,32 16,32.2990803 16,32.6666941 C16,33.0343079 16.299068,33.3333333 16.6666667,33.3333333 C17.0342654,33.3333333 17.3333333,33.0342531 17.3333333,32.6666941 C17.3333333,32.2990255 17.0343202,32 16.6666667,32 Z" id="Shape"></path>
                    <path d="M21.9999726,32 C21.6323588,32 21.3333333,32.2990803 21.3333333,32.6666941 C21.3333333,33.0343079 21.6323588,33.3333333 21.9999726,33.3333333 C22.3675864,33.3333333 22.6666667,33.0342531 22.6666667,32.6666941 C22.6666667,32.2990255 22.3675864,32 21.9999726,32 Z" id="Shape"></path>
                    <path d="M19.124422,5.39852963 C20.0598874,6.14922496 21.0297177,6.59229865 21.0705713,6.61080669 C21.2349466,6.68528666 21.4316042,6.68528666 21.5959795,6.61080669 C21.636833,6.59229865 22.6066633,6.14922496 23.5421287,5.39852963 C24.8645809,4.33722747 25.4744198,3.16942942 25.305879,2.02125886 C25.1039345,0.646439346 24.0563222,0.0802274455 23.1432062,0.00873265167 C22.4502985,-0.0457466797 21.7942392,0.157841835 21.3333154,0.530987941 C20.8724718,0.157841835 20.2161721,-0.0455974213 19.5234247,0.00873265167 C18.6103086,0.0802274455 17.5626964,0.646439346 17.360832,2.02125886 C17.192131,3.16942942 17.8020499,4.33722747 19.124422,5.39852963 Z M18.5511912,2.17298006 C18.6759145,1.32377416 19.2768617,1.15138066 19.6239564,1.12421562 C19.6628874,1.12115582 19.7016581,1.11966324 19.7401886,1.11966324 C20.2172135,1.11966324 20.6524235,1.34773014 20.7599243,1.66721783 C20.8384272,1.90065804 21.0705713,2.05954365 21.3332353,2.05954365 C21.5958193,2.05954365 21.8280435,1.90065804 21.9065463,1.66721783 C22.0226183,1.32190843 22.5218322,1.08316955 23.0425143,1.12421562 C23.3896089,1.15138066 23.9906362,1.32377416 24.1153596,2.17298006 C24.3266764,3.61227922 22.3744392,4.93896288 21.3333154,5.47599476 C20.291711,4.93851511 18.3398744,3.61205533 18.5511912,2.17298006 Z" id="Shape"></path>
                </g>
                <g id="family-copy" transform="translate(0.000000, 45.000000)" fill="#FFFFFF">
                    <path d="M25.9999726,17.3333333 C25.6323588,17.3333333 25.3333333,17.6324136 25.3333333,18.0000274 C25.3333333,18.3676412 25.6323588,18.6666667 25.9999726,18.6666667 C26.3675864,18.6666667 26.6666667,18.3675864 26.6666667,18.0000274 C26.6666667,17.6324136 26.3675864,17.3333333 25.9999726,17.3333333 Z" id="Shape"></path>
                    <path d="M32.6666941,17.3333333 C32.2990803,17.3333333 32,17.6324136 32,18.0000274 C32,18.3676412 32.2990803,18.6666667 32.6666941,18.6666667 C33.0343079,18.6666667 33.3333333,18.3675864 33.3333333,18.0000274 C33.3333333,17.6324136 33.0343079,17.3333333 32.6666941,17.3333333 Z" id="Shape"></path>
                    <path d="M7.33336075,17.3333333 C6.96574695,17.3333333 6.66666667,17.6324136 6.66666667,18.0000274 C6.66666667,18.3676412 6.96574695,18.6666667 7.33336075,18.6666667 C7.70097455,18.6666667 8,18.3675864 8,18.0000274 C8,17.6324136 7.70097455,17.3333333 7.33336075,17.3333333 Z" id="Shape"></path>
                    <path d="M12.6666667,17.3333333 C12.299068,17.3333333 12,17.6324136 12,18.0000274 C12,18.3676412 12.299068,18.6666667 12.6666667,18.6666667 C13.0342654,18.6666667 13.3333333,18.3675864 13.3333333,18.0000274 C13.3332785,17.6324136 13.0342654,17.3333333 12.6666667,17.3333333 Z" id="Shape"></path>
                    <path d="M39.6736487,30.6685908 C39.5927255,30.3521782 39.2732546,30.1616205 38.9592569,30.2435248 C38.64565,30.3252713 38.4570637,30.6479963 38.5380652,30.9644878 C38.683336,31.5322945 38.7743453,32.1155668 38.8100767,32.7049148 L27.7070188,32.7049148 C27.5546329,32.6394229 27.393021,32.5916848 27.2249978,32.5633576 C27.225076,32.5498647 27.2255451,32.5364507 27.2255451,32.5228789 C27.2255451,29.8898686 25.8697879,27.5705092 23.8259877,26.2379467 C24.7231018,25.4716129 25.7443764,24.8952054 26.8414921,24.5301868 C27.2712062,25.7209554 28.4049914,26.5551484 29.7069562,26.5551484 C31.007201,26.5551484 32.1397352,25.7232437 32.5707785,24.5350001 C34.7411629,25.2591982 36.6000516,26.7928918 37.7269564,28.8864226 C37.8896629,29.1887899 38.2852876,29.2863965 38.5688707,29.0953653 C38.8174262,28.9279271 38.8999914,28.5861068 38.7576134,28.3214565 C38.2988139,27.4691941 37.7322731,26.6995461 37.0808215,26.0247431 C37.6227335,25.6164051 38.0903681,24.9942323 38.4769232,24.1643002 C40.0108679,20.8710845 40.0071931,14.5792875 38.9281386,11.7385181 C38.2092901,9.84603946 36.9557228,8.2386478 35.3031689,7.09017273 C33.6495203,5.9409086 31.7143996,5.33341224 29.7070344,5.33341224 C27.3113941,5.33341224 24.9994918,6.21234482 23.1970539,7.80829513 C22.9536587,8.02386599 22.9294208,8.39772205 23.1430269,8.64343496 C23.3565548,8.88914786 23.7270815,8.91352978 23.9705549,8.69795892 C25.5589176,7.29154053 27.5962282,6.51700042 29.7070344,6.51700042 C31.4756956,6.51700042 33.1808692,7.05229791 34.6380347,8.06497596 C36.0945746,9.07725948 37.1994308,10.4940145 37.8330557,12.1621637 C38.8107803,14.7363891 38.810233,20.6664026 37.4154606,23.6608018 C37.0615094,24.4205865 36.6493874,24.9370255 36.1873822,25.2027805 C35.1833087,24.3817649 34.0334951,23.7560412 32.7963471,23.3634845 C35.215287,22.1956775 36.8902806,19.7014626 36.8902806,16.8195832 L36.8902806,15.6223443 C36.8902806,15.3341801 36.6846496,15.0879148 36.4031775,15.0390721 C33.5004183,14.5354158 31.4914893,11.562479 31.4719427,11.5331261 C31.2155685,11.1460927 30.6153293,11.2077971 30.4413639,11.6386232 C30.427603,11.6725527 29.0035887,15.0305502 23.1098757,15.0305502 C22.7859483,15.0305502 22.5234755,15.2955162 22.5234755,15.6223443 L22.5234755,16.8195832 C22.5234755,19.6995689 24.1962799,22.1924423 26.6127178,23.3611962 C25.3851085,23.7498866 24.2384225,24.3707969 23.2256702,25.2023071 C22.7639778,24.9363943 22.3520903,24.4201131 21.9983737,23.6607229 C20.6036794,20.6663237 20.6031321,14.7363102 21.5808567,12.1621637 C21.8219845,11.5273659 22.1355132,10.9216844 22.5126076,10.362005 C22.6947044,10.0917524 22.6251964,9.72365644 22.357407,9.53988465 C22.0896958,9.35619176 21.7248766,9.42618127 21.5427798,9.69651282 C21.1148641,10.3315473 20.7593492,11.0185808 20.4857739,11.7384392 C19.4067975,14.5791297 19.4030446,20.8709267 20.9370675,24.1641424 C21.1324561,24.5836061 21.348955,24.9487825 21.5848443,25.2614076 C21.0714704,25.1340535 20.5373771,25.0605132 19.9886629,25.0478883 C19.9301793,24.5846319 19.8902259,23.9290818 20.0016419,23.4183241 C20.0713062,23.0991498 19.8713047,22.7834474 19.5550395,22.7131422 C19.2389307,22.642916 18.9259494,22.8446783 18.856285,23.1638526 C18.7472146,23.6638003 18.7442435,24.2185875 18.7759091,24.686815 C17.8550262,24.091549 17.6787934,23.1917853 17.6687855,23.1363934 C17.6149149,22.8161144 17.3149125,22.5992021 16.9963799,22.6515167 C16.6767527,22.7040681 16.4597847,23.0081713 16.511857,23.3307385 C16.5221776,23.3949679 16.7135005,24.4910495 17.7034222,25.3560157 C17.5212472,25.4108553 17.3420433,25.4724808 17.1659669,25.5407344 C16.0611889,24.5391032 14.7743923,23.8018855 13.3857966,23.3619064 C14.6137968,22.7683763 15.6496141,21.8327104 16.3718246,20.6781596 C16.6712797,20.8339987 17.0057623,20.9180335 17.3486892,20.9180335 C18.5276663,20.9180335 19.4868607,19.9500162 19.4868607,18.7601944 C19.4868607,18.2993052 19.3424499,17.8720298 19.0975692,17.5210565 C20.6279955,13.036362 19.9528534,10.4093485 19.1007748,8.98785912 C18.2508073,7.56999938 16.838521,6.65855757 15.1241214,6.42152431 C13.9049562,6.25290245 12.907685,6.58130871 12.3485719,6.83893641 C11.5331629,5.85916211 10.6050086,5.33333333 8.68005222,5.33333333 C6.47080899,5.33333333 3.33849365,6.48969899 1.6817176,9.02865346 C-0.156529762,11.8456722 0.509542685,15.1580621 1.46811156,17.5508829 C1.2357407,17.8960961 1.09977404,18.3124035 1.09977404,18.7602733 C1.09977404,19.9500951 2.0589684,20.9181124 3.23802375,20.9181124 C3.5808724,20.9181124 3.91543327,20.8339987 4.21481012,20.6782385 C4.93608237,21.831369 5.97025778,22.766167 7.19622514,23.3598548 C5.56845635,23.8747157 4.08603663,24.7984668 2.86624602,26.081003 C2.66264787,26.2950746 2.64974706,26.6398144 2.83762969,26.8683258 C3.05819435,27.136448 3.47313114,27.1520714 3.71238242,26.9005983 C4.76274247,25.7961527 6.03304169,24.9924964 7.42750138,24.5293188 C7.85698089,25.7205609 8.99084433,26.5552273 10.2932001,26.5552273 C11.5946176,26.5552273 12.7279337,25.7217445 13.1580388,24.5318438 C14.1910414,24.8757946 15.1579762,25.4065944 16.0163879,26.1067263 C13.8564023,27.4145912 12.4075247,29.8010995 12.4075247,32.5229578 C12.4075247,32.5365296 12.4079938,32.5499436 12.408072,32.5634365 C12.2400488,32.5917637 12.0784369,32.6395018 11.926051,32.7049937 L1.19015786,32.7049937 C1.27678871,31.2886332 1.6858615,29.9085693 2.3862579,28.6826087 C2.54802617,28.3994944 2.45177835,28.0375531 2.1712445,27.8742969 C1.89078882,27.7111195 1.53206827,27.8081737 1.3703,28.0913669 C0.473811366,29.6603314 0,31.452205 0,33.2733527 L0,33.2967089 C0,33.623537 0.262550919,33.888503 0.586400206,33.888503 L10.7770975,33.888503 C10.6781132,34.1368198 10.6229916,34.4076247 10.6229916,34.6912914 C10.6229916,35.8811131 11.5821859,36.8491304 12.7611631,36.8491304 C13.0700005,36.8491304 13.3703938,36.7822972 13.64522,36.6555743 C14.9740029,38.6698836 17.2440754,40 19.8164176,40 C22.388838,40 24.6589105,38.6698836 25.9876934,36.6555743 C26.2625196,36.7822972 26.5629129,36.8491304 26.8717503,36.8491304 C28.0507275,36.8491304 29.01,35.8811131 29.01,34.6912914 C29.01,34.4076247 28.9549566,34.1368198 28.8558941,33.888503 L39.4135998,33.888503 C39.7375272,33.888503 40,33.623537 40,33.2967089 L40,33.2733527 C40.0000781,32.3914217 39.890304,31.5150141 39.6736487,30.6685908 Z M17.3485328,19.7346031 C17.1943486,19.7346031 17.047514,19.6975173 16.9149094,19.6294216 C17.1570536,19.0503313 17.326406,18.4330506 17.4120986,17.7893365 C17.9147608,17.8226348 18.3139039,18.2447812 18.3139039,18.7603522 C18.3139821,19.2975434 17.8808278,19.7346031 17.3485328,19.7346031 Z M2.66108413,9.67970586 C4.07907802,7.50671686 6.77503342,6.51700042 8.67989585,6.51700042 C10.5401137,6.51700042 11.0686557,7.05663773 11.7179962,7.94551246 C11.9032987,8.19927376 12.2558425,8.25987348 12.5162824,8.08604383 C12.5265248,8.07910011 13.5628113,7.40019393 14.9647769,7.59430239 C16.3216288,7.78186166 17.4340691,8.49446066 18.0971704,9.60064217 C19.084512,11.2478024 19.0887341,13.7088768 18.1174208,16.7473843 C17.9165591,16.6689519 17.701233,16.6201881 17.4765244,16.6066952 L17.4765244,15.6223443 C17.4765244,15.3341801 17.2708934,15.0879148 16.9894995,15.0390721 C14.0866621,14.5354158 12.0777332,11.562479 12.0581865,11.5331261 C11.802516,11.1469607 11.2033714,11.2031417 11.0290933,11.6349146 C11.0255749,11.6433576 10.6613812,12.491359 9.59225638,13.3261043 C8.1642546,14.4411233 6.12545836,15.0304713 3.69619778,15.0304713 C3.37234849,15.0304713 3.10979757,15.2954373 3.10979757,15.6222654 L3.10979757,16.6066163 C2.86765338,16.6211349 2.63629895,16.676448 2.42230197,16.7659272 C1.35982298,13.9343109 1.43886973,11.5526947 2.66108413,9.67970586 Z M3.23786738,19.7346031 C2.70549418,19.7346031 2.27241808,19.2975434 2.27241808,18.7603522 C2.27241808,18.2447812 2.67156115,17.8226348 3.17422341,17.7893365 C3.25983784,18.4326561 3.42903384,19.0495423 3.67094348,19.6283169 C3.53755697,19.6966494 3.38970594,19.7346031 3.23786738,19.7346031 Z M4.29737527,17.2227134 C4.29714071,17.2198727 4.29698433,17.2170321 4.29674977,17.2142704 C4.2883838,17.0836812 4.28267617,16.9523818 4.28267617,16.8196621 L4.28267617,16.2037228 C8.73087357,16.0429916 10.7970351,14.0684508 11.6313654,12.9109805 C12.4384084,13.8786822 14.0897114,15.5365736 16.3038022,16.101303 L16.3038022,16.8196621 C16.3038022,16.9523818 16.2980164,17.0836812 16.2897286,17.2142704 C16.289494,17.217111 16.2893377,17.2199517 16.2891031,17.2227923 C16.082612,20.3800532 13.4731311,22.8854727 10.2932783,22.8854727 C7.11334724,22.8853938 4.50386633,20.3800532 4.29737527,17.2227134 Z M10.2932001,25.3716391 C9.5310362,25.3716391 8.86285271,24.9071991 8.57192002,24.231607 C9.13283137,24.1244528 9.70828543,24.0690609 10.2932001,24.0690609 C10.876551,24.0690609 11.4520833,24.1246106 12.0139329,24.2326327 C11.7227656,24.9076725 11.0549731,25.3716391 10.2932001,25.3716391 Z M29.7068781,25.3716391 C28.9450269,25.3716391 28.2769998,24.9075147 27.9858325,24.2322382 C28.5472912,24.1246106 29.1228234,24.0689819 29.7068781,24.0689819 C30.2906981,24.0689819 30.8658394,24.1263465 31.4265944,24.2348421 C31.1348798,24.9086983 30.4677128,25.3716391 29.7068781,25.3716391 Z M23.6962759,16.8195832 L23.6962759,16.2036439 C28.1444733,16.0429127 30.2107131,14.0683719 31.0449651,12.9109016 C31.8520082,13.8786033 33.5033894,15.5364947 35.717402,16.1012241 L35.717402,16.8195832 C35.717402,20.1643245 33.0211338,22.8853938 29.7068781,22.8853938 C26.3926223,22.8853938 23.6962759,20.1643245 23.6962759,16.8195832 Z M12.7611631,35.6655423 C12.2288681,35.6655423 11.795792,35.2284826 11.795792,34.6912914 C11.795792,34.2424747 12.0984527,33.8646734 12.5082291,33.7520747 C12.6155795,34.4044685 12.8065896,35.028614 13.0702351,35.6126753 C12.9715635,35.6467627 12.8676534,35.6655423 12.7611631,35.6655423 Z M19.8164958,38.8164118 C16.377845,38.8164118 13.5803251,35.9931595 13.5803251,32.5228789 C13.5803251,29.0525984 16.377845,26.229346 19.8164958,26.229346 C23.2551466,26.229346 26.0526665,29.0525984 26.0526665,32.5228789 C26.0526665,35.9931595 23.2551466,38.8164118 19.8164958,38.8164118 Z M26.8718285,35.6655423 C26.7654164,35.6655423 26.6615063,35.6467627 26.5628347,35.6126753 C26.8264802,35.028614 27.0174903,34.4043896 27.1248407,33.7520747 C27.5346171,33.8646734 27.8372778,34.2425536 27.8372778,34.6912914 C27.8372778,35.2284826 27.4042017,35.6655423 26.8718285,35.6655423 Z" id="Shape"></path>
                    <path d="M16.6666667,32 C16.299068,32 16,32.2990803 16,32.6666941 C16,33.0343079 16.299068,33.3333333 16.6666667,33.3333333 C17.0342654,33.3333333 17.3333333,33.0342531 17.3333333,32.6666941 C17.3333333,32.2990255 17.0343202,32 16.6666667,32 Z" id="Shape"></path>
                    <path d="M21.9999726,32 C21.6323588,32 21.3333333,32.2990803 21.3333333,32.6666941 C21.3333333,33.0343079 21.6323588,33.3333333 21.9999726,33.3333333 C22.3675864,33.3333333 22.6666667,33.0342531 22.6666667,32.6666941 C22.6666667,32.2990255 22.3675864,32 21.9999726,32 Z" id="Shape"></path>
                    <path d="M19.124422,5.39852963 C20.0598874,6.14922496 21.0297177,6.59229865 21.0705713,6.61080669 C21.2349466,6.68528666 21.4316042,6.68528666 21.5959795,6.61080669 C21.636833,6.59229865 22.6066633,6.14922496 23.5421287,5.39852963 C24.8645809,4.33722747 25.4744198,3.16942942 25.305879,2.02125886 C25.1039345,0.646439346 24.0563222,0.0802274455 23.1432062,0.00873265167 C22.4502985,-0.0457466797 21.7942392,0.157841835 21.3333154,0.530987941 C20.8724718,0.157841835 20.2161721,-0.0455974213 19.5234247,0.00873265167 C18.6103086,0.0802274455 17.5626964,0.646439346 17.360832,2.02125886 C17.192131,3.16942942 17.8020499,4.33722747 19.124422,5.39852963 Z M18.5511912,2.17298006 C18.6759145,1.32377416 19.2768617,1.15138066 19.6239564,1.12421562 C19.6628874,1.12115582 19.7016581,1.11966324 19.7401886,1.11966324 C20.2172135,1.11966324 20.6524235,1.34773014 20.7599243,1.66721783 C20.8384272,1.90065804 21.0705713,2.05954365 21.3332353,2.05954365 C21.5958193,2.05954365 21.8280435,1.90065804 21.9065463,1.66721783 C22.0226183,1.32190843 22.5218322,1.08316955 23.0425143,1.12421562 C23.3896089,1.15138066 23.9906362,1.32377416 24.1153596,2.17298006 C24.3266764,3.61227922 22.3744392,4.93896288 21.3333154,5.47599476 C20.291711,4.93851511 18.3398744,3.61205533 18.5511912,2.17298006 Z" id="Shape"></path>
                </g>
            </g>
        </g>
    </g>
</svg>