<?xml version="1.0" encoding="UTF-8"?>
<svg width="30px" height="85px" viewBox="0 0 30 85" version="1.1" xmlns="http://www.w3.org/2000/svg" xmlns:xlink="http://www.w3.org/1999/xlink">
    <!-- Generator: Sketch 49 (51002) - http://www.bohemiancoding.com/sketch -->
    <title>Group 6</title>
    <desc>Created with Sketch.</desc>
    <defs></defs>
    <g id="chame-UI" stroke="none" stroke-width="1" fill="none" fill-rule="evenodd">
        <g id="1.1-ChaMe-Home" transform="translate(-548.000000, -1304.000000)" fill-rule="nonzero">
            <g id="Group-6" transform="translate(548.000000, 1304.000000)">
                <g id="pregnant" fill="#01B2FF">
                    <path d="M8.88892726,11.8309859 C7.96986067,11.8309859 7.22222222,12.5824167 7.22222222,13.5060681 C7.22222222,13.8255206 7.47982484,14.084507 7.79774192,14.084507 C8.11558226,14.084507 8.37326161,13.8255206 8.37326161,13.5060681 C8.37326161,13.2203192 8.60462053,12.9878639 8.88892726,12.9878639 C9.17323399,12.9878639 9.40451617,13.2203192 9.40451617,13.5060681 C9.40451617,13.8255206 9.66211878,14.084507 9.98003586,14.084507 C10.2979529,14.084507 10.5555556,13.8255206 10.5555556,13.5060681 C10.5555556,12.5824167 9.8079171,11.8309859 8.88892726,11.8309859 Z" id="Shape"></path>
                    <path d="M11.0144412,27.0433181 C10.4660666,27.0259986 9.9424389,27.2204809 9.54200404,27.5914391 C9.14172384,27.9621685 8.9118102,28.4645873 8.89441007,29.0059941 C8.80323342,31.8381559 9.84492087,34.3503262 11.7522838,35.8984017 C13.2632333,37.1247308 15.2454555,37.7465552 17.6438886,37.7464789 C18.8890415,37.7464026 20.2662807,37.5774037 21.7374806,37.2440601 C22.8421951,36.9938044 23.5345654,35.9035899 23.2809876,34.8135281 C23.0271778,33.7235425 21.9218445,33.0402987 20.8175167,33.2908596 C17.8478181,33.9635744 15.6161168,33.782139 14.3641585,32.7660857 C13.9312434,32.4146596 12.9320123,31.3574056 13.0035461,29.1346316 C13.039429,28.0169501 12.146996,27.0787965 11.0144412,27.0433181 Z M13.6270892,33.6499155 C15.1671936,34.8998968 17.7432627,35.1615208 21.0770492,34.4063285 C21.5586846,34.297452 22.0397014,34.5949359 22.1503662,35.0696587 C22.2608763,35.5445341 21.9591195,36.0195621 21.4778707,36.1285912 C20.0916608,36.4426315 18.8018089,36.6019406 17.6438886,36.6019406 C15.5213828,36.6020169 13.7870931,36.0679347 12.4892758,35.0144956 C10.8618615,33.6936339 9.97422313,31.5168673 10.053877,29.0421591 C10.0614558,28.806171 10.1616805,28.5872736 10.335991,28.4257519 C10.5031096,28.2709443 10.7192578,28.1867119 10.9477794,28.1867119 C10.9576008,28.1867119 10.9674996,28.1868645 10.9773983,28.1871697 C11.4709432,28.2026581 11.8597006,28.6113836 11.8440792,29.098314 C11.7561505,31.8287713 13.0617012,33.1909862 13.6270892,33.6499155 Z" id="Shape"></path>
                    <path d="M30,12.9 C30,11.6345312 29.1663661,10.5692969 27.9940781,10.2461719 C27.970022,10.0089062 27.938025,9.76851562 27.8973865,9.52710937 C27.843669,9.20804687 27.5424615,8.99296875 27.2243603,9.04703125 C26.9064147,9.1009375 26.6922452,9.40335937 26.7458849,9.72242187 C26.8070762,10.0857031 26.8448342,10.4271875 26.8642192,10.743125 C26.864297,10.7625781 26.865387,10.781875 26.8673332,10.8009375 C26.8950484,11.3089844 26.8751184,11.7490625 26.8277068,12.1033594 C26.6607932,12.04375 26.4702127,11.9761719 26.2580674,11.9008594 C24.419604,11.2488281 20.9976411,10.0350781 17.9575398,8.69414062 C13.0903415,6.54734375 12.3287981,5.44914062 12.2272797,5.07664062 C12.1666334,4.85414062 11.9815025,4.68796875 11.7544096,4.65234375 C11.5273946,4.61648437 11.3003797,4.71796875 11.174883,4.91132812 C9.3385217,7.73992187 5.33142684,11.5667969 3.28221949,12.2057031 C3.15399806,9.3703125 4.04228375,6.76 5.81504039,4.80023437 C7.93166714,2.46046875 11.1935674,1.171875 14.9999611,1.171875 C18.0763412,1.171875 20.6378114,1.84695312 22.6132934,3.17835937 C24.1942239,4.24382812 25.3710273,5.69804687 26.1111616,7.500625 C26.2340112,7.79984375 26.575468,7.94226562 26.8734835,7.81914062 C27.1715769,7.69585937 27.3137338,7.35335937 27.1908841,7.05414062 C26.3729762,5.0621875 25.0152459,3.38554688 23.2643655,2.20554688 C21.0930092,0.74203125 18.3124648,0 14.9999611,0 C10.8601294,0 7.29110495,1.42507812 4.95026586,4.01265625 C3.40724901,5.71835937 2.46353306,7.8565625 2.18754947,10.2036719 C0.942081075,10.464375 0,11.5788281 0,12.9 C0,13.3851562 0.130323421,13.8630469 0.371040278,14.2807031 C0.268665547,14.5230469 0.211989651,14.7894531 0.211989651,15.0688281 C0.211989651,16.1711719 1.09389151,17.0700781 2.18677095,17.0939062 L2.18677095,28.2992187 C2.18677095,29.5421875 2.64749617,30.7309375 3.48408845,31.6464844 C4.19323782,32.4225781 5.1202157,32.9453906 6.13508793,33.1527344 L6.13508793,35.4185156 C6.13508793,35.7421094 6.39643544,36.0044531 6.71897423,36.0044531 C7.04151302,36.0044531 7.30286052,35.7421094 7.30286052,35.4185156 L7.30286052,30.5373437 C7.30286052,28.2917969 8.25833206,26.1920312 9.93548705,24.7220312 C11.4901816,25.394375 13.2023698,25.7676562 14.9999611,25.7676562 C16.7975523,25.7676562 18.5097405,25.394375 20.0644351,24.7220312 C21.7415901,26.1919531 22.6970616,28.2917187 22.6970616,30.5373437 C22.6970616,31.3014844 23.104225,32.0091406 23.7598125,32.3842969 C26.0776076,33.7102344 27.590418,36.0889062 27.8063781,38.7471875 C27.8086358,38.7752344 27.7970359,38.794375 27.7867595,38.8055469 C27.7729798,38.8205469 27.7557746,38.828125 27.7355332,38.828125 L7.32006571,38.828125 C7.31056782,38.828125 7.30278267,38.8203125 7.30278267,38.8107812 L7.30278267,38.0677344 C7.30278267,37.7441406 7.04143517,37.4817969 6.71889638,37.4817969 C6.39635759,37.4817969 6.13501008,37.7441406 6.13501008,38.0677344 L6.13501008,38.8107812 C6.13501008,39.4664844 6.66658016,40 7.32006571,40 L27.7355332,40 C28.0801819,40 28.4119071,39.8541406 28.6454616,39.5997656 C28.8801061,39.3442187 28.9985182,38.9988281 28.970336,38.6519531 C28.7229239,35.6076563 26.9912728,32.8840625 24.3381714,31.36625 C24.0461504,31.1992188 23.8647564,30.8815625 23.8647564,30.5374219 C23.8647564,28.1141406 22.8987749,25.8385938 21.188533,24.1689844 C23.9754612,22.62375 26.1327264,20.0696875 27.1666723,17.0004688 C27.360289,17.0614844 27.5627029,17.0950781 27.7687758,17.0950781 C28.8821302,17.0950781 29.7878546,16.1861719 29.7878546,15.0689063 C29.7878546,14.7895313 29.7311787,14.523125 29.6288819,14.2807813 C29.8697544,13.863125 30,13.3851562 30,12.9 Z M1.16777259,12.9 C1.16777259,12.2592188 1.55391606,11.7035938 2.10455976,11.4557031 C2.09669676,11.9351563 2.11514757,12.4211719 2.16154707,12.9123438 C2.16162492,12.9564844 2.16263699,13.0003906 2.16318195,13.0444531 C1.82149169,13.0558594 1.50128844,13.1527344 1.22273575,13.3146094 C1.18684621,13.1810156 1.16777259,13.0422656 1.16777259,12.9 Z M2.18677095,15.9208594 C1.73795702,15.8975 1.37976224,15.5248438 1.37976224,15.0688281 C1.37976224,14.6127344 1.73795702,14.2401563 2.18677095,14.2167969 L2.18677095,15.9208594 Z M6.13508793,30.5373438 L6.13508793,31.9504688 C4.51242899,31.515 3.35454354,30.0442969 3.35454354,28.2992188 L3.35454354,18.3045313 C4.50830286,20.7907031 6.42952233,22.8482813 8.81123345,24.1689063 C7.10106942,25.8385938 6.13508793,28.1141406 6.13508793,30.5373438 Z M14.9999611,24.5958594 C8.7358732,24.5958594 3.60942937,19.6177344 3.34076383,13.3969531 C4.71328588,13.0783594 6.40640043,11.7689063 7.66113315,10.6446875 C9.14179095,9.31820313 10.6036087,7.71429688 11.6380216,6.29664063 C13.134639,7.98398438 17.5759117,10.0644531 25.868732,13.0057813 C26.1862104,13.1184375 26.454331,13.2135156 26.6632066,13.2889063 C26.4497378,19.5600781 21.3003278,24.5958594 14.9999611,24.5958594 Z M27.7689315,15.923125 C27.6728628,15.923125 27.5784289,15.9059375 27.4889775,15.8742188 C27.6175882,15.3332813 27.7127228,14.779375 27.7707221,14.2146094 C28.2392325,14.2155469 28.6202378,14.5983594 28.6202378,15.0688281 C28.6201599,15.5399219 28.2382983,15.923125 27.7689315,15.923125 Z M28.7772642,13.3145313 C28.4987116,13.1526563 28.1785083,13.0557813 27.8368181,13.044375 C27.8371295,13.0203906 27.8375966,12.9965625 27.8377523,12.9725781 C27.9566315,12.5683594 28.0252965,12.0757813 28.0424239,11.5327344 C28.514204,11.8094531 28.8323831,12.3239844 28.8323831,12.9000781 C28.8322274,13.0422656 28.8132316,13.1810156 28.7772642,13.3145313 Z" id="Shape"></path>
                    <path d="M21.1110727,11.8309859 C20.1920829,11.8309859 19.4444444,12.5824167 19.4444444,13.5060681 C19.4444444,13.8255206 19.7020471,14.084507 20.0199641,14.084507 C20.3378812,14.084507 20.5954838,13.8255206 20.5954838,13.5060681 C20.5954838,13.2203192 20.826766,12.9878639 21.1110727,12.9878639 C21.3953795,12.9878639 21.6267384,13.2203192 21.6267384,13.5060681 C21.6267384,13.8255206 21.884341,14.084507 22.2022581,14.084507 C22.5201752,14.084507 22.7777778,13.8255206 22.7777778,13.5060681 C22.7777778,12.5824167 22.0301393,11.8309859 21.1110727,11.8309859 Z" id="Shape"></path>
                    <path d="M16.1782808,15.9550281 C15.9421283,16.1932113 15.6222966,16.3243527 15.2777634,16.3243527 C14.9332302,16.3243527 14.613318,16.1931353 14.377246,15.9550281 C14.149381,15.7252836 13.7675139,15.7134239 13.5242809,15.9287238 C13.2810479,16.1440238 13.268496,16.5048337 13.496361,16.7346542 C13.9564359,17.1986287 14.6056742,17.4647887 15.2777634,17.4647887 C15.9498525,17.4647887 16.5990908,17.1987047 17.0591657,16.7346542 C17.2870307,16.5048337 17.2745593,16.1440238 17.0312458,15.9287238 C16.7880932,15.7133478 16.4060653,15.7252836 16.1782808,15.9550281 Z" id="Shape"></path>
                </g>
                <g id="pregnant-copy" transform="translate(0.000000, 45.000000)" fill="#FFFFFF">
                    <path d="M8.88892726,11.8309859 C7.96986067,11.8309859 7.22222222,12.5824167 7.22222222,13.5060681 C7.22222222,13.8255206 7.47982484,14.084507 7.79774192,14.084507 C8.11558226,14.084507 8.37326161,13.8255206 8.37326161,13.5060681 C8.37326161,13.2203192 8.60462053,12.9878639 8.88892726,12.9878639 C9.17323399,12.9878639 9.40451617,13.2203192 9.40451617,13.5060681 C9.40451617,13.8255206 9.66211878,14.084507 9.98003586,14.084507 C10.2979529,14.084507 10.5555556,13.8255206 10.5555556,13.5060681 C10.5555556,12.5824167 9.8079171,11.8309859 8.88892726,11.8309859 Z" id="Shape"></path>
                    <path d="M11.0144412,27.0433181 C10.4660666,27.0259986 9.9424389,27.2204809 9.54200404,27.5914391 C9.14172384,27.9621685 8.9118102,28.4645873 8.89441007,29.0059941 C8.80323342,31.8381559 9.84492087,34.3503262 11.7522838,35.8984017 C13.2632333,37.1247308 15.2454555,37.7465552 17.6438886,37.7464789 C18.8890415,37.7464026 20.2662807,37.5774037 21.7374806,37.2440601 C22.8421951,36.9938044 23.5345654,35.9035899 23.2809876,34.8135281 C23.0271778,33.7235425 21.9218445,33.0402987 20.8175167,33.2908596 C17.8478181,33.9635744 15.6161168,33.782139 14.3641585,32.7660857 C13.9312434,32.4146596 12.9320123,31.3574056 13.0035461,29.1346316 C13.039429,28.0169501 12.146996,27.0787965 11.0144412,27.0433181 Z M13.6270892,33.6499155 C15.1671936,34.8998968 17.7432627,35.1615208 21.0770492,34.4063285 C21.5586846,34.297452 22.0397014,34.5949359 22.1503662,35.0696587 C22.2608763,35.5445341 21.9591195,36.0195621 21.4778707,36.1285912 C20.0916608,36.4426315 18.8018089,36.6019406 17.6438886,36.6019406 C15.5213828,36.6020169 13.7870931,36.0679347 12.4892758,35.0144956 C10.8618615,33.6936339 9.97422313,31.5168673 10.053877,29.0421591 C10.0614558,28.806171 10.1616805,28.5872736 10.335991,28.4257519 C10.5031096,28.2709443 10.7192578,28.1867119 10.9477794,28.1867119 C10.9576008,28.1867119 10.9674996,28.1868645 10.9773983,28.1871697 C11.4709432,28.2026581 11.8597006,28.6113836 11.8440792,29.098314 C11.7561505,31.8287713 13.0617012,33.1909862 13.6270892,33.6499155 Z" id="Shape"></path>
                    <path d="M30,12.9 C30,11.6345312 29.1663661,10.5692969 27.9940781,10.2461719 C27.970022,10.0089062 27.938025,9.76851562 27.8973865,9.52710937 C27.843669,9.20804687 27.5424615,8.99296875 27.2243603,9.04703125 C26.9064147,9.1009375 26.6922452,9.40335937 26.7458849,9.72242187 C26.8070762,10.0857031 26.8448342,10.4271875 26.8642192,10.743125 C26.864297,10.7625781 26.865387,10.781875 26.8673332,10.8009375 C26.8950484,11.3089844 26.8751184,11.7490625 26.8277068,12.1033594 C26.6607932,12.04375 26.4702127,11.9761719 26.2580674,11.9008594 C24.419604,11.2488281 20.9976411,10.0350781 17.9575398,8.69414062 C13.0903415,6.54734375 12.3287981,5.44914062 12.2272797,5.07664062 C12.1666334,4.85414062 11.9815025,4.68796875 11.7544096,4.65234375 C11.5273946,4.61648437 11.3003797,4.71796875 11.174883,4.91132812 C9.3385217,7.73992187 5.33142684,11.5667969 3.28221949,12.2057031 C3.15399806,9.3703125 4.04228375,6.76 5.81504039,4.80023437 C7.93166714,2.46046875 11.1935674,1.171875 14.9999611,1.171875 C18.0763412,1.171875 20.6378114,1.84695312 22.6132934,3.17835937 C24.1942239,4.24382812 25.3710273,5.69804687 26.1111616,7.500625 C26.2340112,7.79984375 26.575468,7.94226562 26.8734835,7.81914062 C27.1715769,7.69585937 27.3137338,7.35335937 27.1908841,7.05414062 C26.3729762,5.0621875 25.0152459,3.38554688 23.2643655,2.20554688 C21.0930092,0.74203125 18.3124648,0 14.9999611,0 C10.8601294,0 7.29110495,1.42507812 4.95026586,4.01265625 C3.40724901,5.71835937 2.46353306,7.8565625 2.18754947,10.2036719 C0.942081075,10.464375 0,11.5788281 0,12.9 C0,13.3851562 0.130323421,13.8630469 0.371040278,14.2807031 C0.268665547,14.5230469 0.211989651,14.7894531 0.211989651,15.0688281 C0.211989651,16.1711719 1.09389151,17.0700781 2.18677095,17.0939062 L2.18677095,28.2992187 C2.18677095,29.5421875 2.64749617,30.7309375 3.48408845,31.6464844 C4.19323782,32.4225781 5.1202157,32.9453906 6.13508793,33.1527344 L6.13508793,35.4185156 C6.13508793,35.7421094 6.39643544,36.0044531 6.71897423,36.0044531 C7.04151302,36.0044531 7.30286052,35.7421094 7.30286052,35.4185156 L7.30286052,30.5373437 C7.30286052,28.2917969 8.25833206,26.1920312 9.93548705,24.7220312 C11.4901816,25.394375 13.2023698,25.7676562 14.9999611,25.7676562 C16.7975523,25.7676562 18.5097405,25.394375 20.0644351,24.7220312 C21.7415901,26.1919531 22.6970616,28.2917187 22.6970616,30.5373437 C22.6970616,31.3014844 23.104225,32.0091406 23.7598125,32.3842969 C26.0776076,33.7102344 27.590418,36.0889062 27.8063781,38.7471875 C27.8086358,38.7752344 27.7970359,38.794375 27.7867595,38.8055469 C27.7729798,38.8205469 27.7557746,38.828125 27.7355332,38.828125 L7.32006571,38.828125 C7.31056782,38.828125 7.30278267,38.8203125 7.30278267,38.8107812 L7.30278267,38.0677344 C7.30278267,37.7441406 7.04143517,37.4817969 6.71889638,37.4817969 C6.39635759,37.4817969 6.13501008,37.7441406 6.13501008,38.0677344 L6.13501008,38.8107812 C6.13501008,39.4664844 6.66658016,40 7.32006571,40 L27.7355332,40 C28.0801819,40 28.4119071,39.8541406 28.6454616,39.5997656 C28.8801061,39.3442187 28.9985182,38.9988281 28.970336,38.6519531 C28.7229239,35.6076563 26.9912728,32.8840625 24.3381714,31.36625 C24.0461504,31.1992188 23.8647564,30.8815625 23.8647564,30.5374219 C23.8647564,28.1141406 22.8987749,25.8385938 21.188533,24.1689844 C23.9754612,22.62375 26.1327264,20.0696875 27.1666723,17.0004688 C27.360289,17.0614844 27.5627029,17.0950781 27.7687758,17.0950781 C28.8821302,17.0950781 29.7878546,16.1861719 29.7878546,15.0689063 C29.7878546,14.7895313 29.7311787,14.523125 29.6288819,14.2807813 C29.8697544,13.863125 30,13.3851562 30,12.9 Z M1.16777259,12.9 C1.16777259,12.2592188 1.55391606,11.7035938 2.10455976,11.4557031 C2.09669676,11.9351563 2.11514757,12.4211719 2.16154707,12.9123438 C2.16162492,12.9564844 2.16263699,13.0003906 2.16318195,13.0444531 C1.82149169,13.0558594 1.50128844,13.1527344 1.22273575,13.3146094 C1.18684621,13.1810156 1.16777259,13.0422656 1.16777259,12.9 Z M2.18677095,15.9208594 C1.73795702,15.8975 1.37976224,15.5248438 1.37976224,15.0688281 C1.37976224,14.6127344 1.73795702,14.2401563 2.18677095,14.2167969 L2.18677095,15.9208594 Z M6.13508793,30.5373438 L6.13508793,31.9504688 C4.51242899,31.515 3.35454354,30.0442969 3.35454354,28.2992188 L3.35454354,18.3045313 C4.50830286,20.7907031 6.42952233,22.8482813 8.81123345,24.1689063 C7.10106942,25.8385938 6.13508793,28.1141406 6.13508793,30.5373438 Z M14.9999611,24.5958594 C8.7358732,24.5958594 3.60942937,19.6177344 3.34076383,13.3969531 C4.71328588,13.0783594 6.40640043,11.7689063 7.66113315,10.6446875 C9.14179095,9.31820313 10.6036087,7.71429688 11.6380216,6.29664063 C13.134639,7.98398438 17.5759117,10.0644531 25.868732,13.0057813 C26.1862104,13.1184375 26.454331,13.2135156 26.6632066,13.2889063 C26.4497378,19.5600781 21.3003278,24.5958594 14.9999611,24.5958594 Z M27.7689315,15.923125 C27.6728628,15.923125 27.5784289,15.9059375 27.4889775,15.8742188 C27.6175882,15.3332813 27.7127228,14.779375 27.7707221,14.2146094 C28.2392325,14.2155469 28.6202378,14.5983594 28.6202378,15.0688281 C28.6201599,15.5399219 28.2382983,15.923125 27.7689315,15.923125 Z M28.7772642,13.3145313 C28.4987116,13.1526563 28.1785083,13.0557813 27.8368181,13.044375 C27.8371295,13.0203906 27.8375966,12.9965625 27.8377523,12.9725781 C27.9566315,12.5683594 28.0252965,12.0757813 28.0424239,11.5327344 C28.514204,11.8094531 28.8323831,12.3239844 28.8323831,12.9000781 C28.8322274,13.0422656 28.8132316,13.1810156 28.7772642,13.3145313 Z" id="Shape"></path>
                    <path d="M21.1110727,11.8309859 C20.1920829,11.8309859 19.4444444,12.5824167 19.4444444,13.5060681 C19.4444444,13.8255206 19.7020471,14.084507 20.0199641,14.084507 C20.3378812,14.084507 20.5954838,13.8255206 20.5954838,13.5060681 C20.5954838,13.2203192 20.826766,12.9878639 21.1110727,12.9878639 C21.3953795,12.9878639 21.6267384,13.2203192 21.6267384,13.5060681 C21.6267384,13.8255206 21.884341,14.084507 22.2022581,14.084507 C22.5201752,14.084507 22.7777778,13.8255206 22.7777778,13.5060681 C22.7777778,12.5824167 22.0301393,11.8309859 21.1110727,11.8309859 Z" id="Shape"></path>
                    <path d="M16.1782808,15.9550281 C15.9421283,16.1932113 15.6222966,16.3243527 15.2777634,16.3243527 C14.9332302,16.3243527 14.613318,16.1931353 14.377246,15.9550281 C14.149381,15.7252836 13.7675139,15.7134239 13.5242809,15.9287238 C13.2810479,16.1440238 13.268496,16.5048337 13.496361,16.7346542 C13.9564359,17.1986287 14.6056742,17.4647887 15.2777634,17.4647887 C15.9498525,17.4647887 16.5990908,17.1987047 17.0591657,16.7346542 C17.2870307,16.5048337 17.2745593,16.1440238 17.0312458,15.9287238 C16.7880932,15.7133478 16.4060653,15.7252836 16.1782808,15.9550281 Z" id="Shape"></path>
                </g>
            </g>
        </g>
    </g>
</svg>