<?xml version="1.0" encoding="UTF-8"?>
<svg width="47px" height="85px" viewBox="0 0 47 85" version="1.1" xmlns="http://www.w3.org/2000/svg" xmlns:xlink="http://www.w3.org/1999/xlink">
    <!-- Generator: Sketch 49 (51002) - http://www.bohemiancoding.com/sketch -->
    <title>Group 10</title>
    <desc>Created with Sketch.</desc>
    <defs></defs>
    <g id="chame-UI" stroke="none" stroke-width="1" fill="none" fill-rule="evenodd">
        <g id="1.1-ChaMe-Home" transform="translate(-1015.000000, -1288.000000)" fill-rule="nonzero">
            <g id="Group-10" transform="translate(1015.000000, 1288.000000)">
                <g id="boy" fill="#00B2FF">
                    <path d="M8.3546539,17.3462343 C10.2914624,17.3462343 12.0504773,16.3730706 13.1011736,14.7913625 C13.6120627,15.2860994 14.292891,15.6014261 15.0440514,15.6373081 C16.4517631,18.6720564 19.4310566,20.6060606 22.7673656,20.6060606 L24.8591188,20.6060606 C28.1950707,20.6060606 31.1757923,18.6709691 32.5831469,15.6351334 C33.3225258,15.589103 33.9901447,15.2694269 34.4892522,14.7750525 C35.5374494,16.367634 37.2986063,17.3462343 39.2479104,17.3462343 C39.8676891,17.3462343 40.3717949,16.8344626 40.3717949,16.2052588 L40.3717949,8.371382 C40.3717949,5.70813937 38.2379139,3.54180825 35.6145647,3.54180825 L33.9676527,3.54180825 C33.6884666,2.87599762 33.0376275,2.40808166 32.2811119,2.40808166 L31.9501586,2.40808166 C31.6181343,2.40808166 31.2964634,2.50195483 31.0176344,2.66976668 C29.4621184,1.02535564 27.27647,0 24.8591188,0 L22.7673656,0 C20.3453731,0 18.1561547,1.02898013 16.6002815,2.67846535 C16.3185964,2.50521681 15.9915703,2.40808166 15.6520487,2.40808166 L15.3214524,2.40808166 C14.5649368,2.40808166 13.9140977,2.87599762 13.6349117,3.54180825 L11.9879996,3.54180825 C9.36500752,3.54180825 7.23076942,5.70850188 7.23076942,8.371382 L7.23076942,16.2052588 C7.23041243,16.8344626 7.73487516,17.3462343 8.3546539,17.3462343 Z M32.39857,14.2339228 C32.352872,14.2339228 32.3011048,14.229211 32.235414,14.2197874 C31.9194554,14.1726697 31.6134931,14.3524422 31.49425,14.6525463 C30.3957136,17.4147363 27.7912863,19.1994133 24.8587618,19.1994133 L22.7670085,19.1994133 C19.8316279,19.1994133 17.2261295,17.4121991 16.1293782,14.6460222 C16.0222737,14.3760011 15.7655796,14.2052897 15.4871076,14.2052897 C15.4464078,14.2052897 15.404994,14.2089141 15.3639372,14.216163 C15.2996745,14.2281237 15.241838,14.2339228 15.1875716,14.2339228 C14.2828947,14.2339228 13.5474429,13.4869246 13.5474429,12.5688525 L13.5474429,11.7827102 C13.5474429,11.2307071 13.989785,10.7816384 14.5335194,10.7816384 L14.9198101,10.7816384 C15.3025306,10.7816384 15.612777,10.4670365 15.612777,10.0781335 L15.612777,9.99767077 C16.9644373,8.2564871 19.0497643,7.22352006 21.2357695,7.22352006 L26.3900009,7.22352006 C28.5763631,7.22352006 30.661333,8.2564871 32.0133504,9.99767077 L32.0133504,10.0781335 C32.0133504,10.4666741 32.3235967,10.7816384 32.7063172,10.7816384 L32.8783987,10.7816384 C33.5017476,10.7816384 34.0087094,11.2963097 34.0087094,11.9295002 L34.0087094,12.5989354 C34.0090665,13.500335 33.2864673,14.2339228 32.39857,14.2339228 Z M38.9862181,8.371382 L38.9862181,15.9316131 C37.3760786,15.8355653 35.9680099,14.8566026 35.297535,13.3662306 C35.3603697,13.1208555 35.3946432,12.8638824 35.3946432,12.5989354 L35.3946432,11.9291378 C35.3946432,11.3637243 35.2107803,10.8414417 34.903033,10.417744 C34.903033,10.417744 34.8951787,9.10786935 34.879113,8.94658154 C34.8412694,8.5602156 34.5010337,8.27750893 34.1208123,8.31701537 C33.7402338,8.35543444 33.4624759,8.70011924 33.5003195,9.08684761 C33.511744,9.20138009 33.5174562,9.31844971 33.5174562,9.43406946 L33.5174562,9.4608904 C33.4781846,9.45037944 33.4392699,9.43841879 33.3992842,9.43008254 L33.3992842,8.6696739 C33.3992842,8.21770551 33.3646537,7.77371095 33.2989629,7.34022725 C33.7934292,7.00170408 34.113672,6.42831673 34.113672,5.79657584 L34.113672,4.94809315 L35.6145647,4.94809315 C37.4735439,4.94809315 38.9862181,6.48377073 38.9862181,8.371382 Z M31.9501586,3.81472898 L32.2811119,3.81472898 C32.5274525,3.81472898 32.7277382,4.01806045 32.7277382,4.26778473 L32.7277382,5.30038926 C32.5096018,4.77738174 32.2421973,4.28047022 31.9319508,3.81581634 C31.9380201,3.81545392 31.9440894,3.81472898 31.9501586,3.81472898 Z M22.7673656,1.40664732 L24.8591188,1.40664732 C28.5595834,1.40664732 31.6127791,4.27358384 31.9769348,7.93463633 C30.4381984,6.5870675 28.4521218,5.81687274 26.3903579,5.81687274 L21.2361265,5.81687274 C19.1740055,5.81687274 17.1879289,6.5870675 15.6491925,7.93463633 C16.0133482,4.27358384 19.0665439,1.40664732 22.7673656,1.40664732 Z M15.3210954,3.81472898 L15.6520487,3.81472898 C15.6659723,3.81472898 15.6795389,3.81617876 15.6931054,3.81726612 C15.3714346,4.29895492 15.0968898,4.81543848 14.8748261,5.35910523 L14.8748261,4.26778473 C14.8748261,4.01806045 15.0751118,3.81472898 15.3210954,3.81472898 Z M8.61634625,8.371382 C8.61634625,6.48377073 10.1286634,4.94809315 11.9879996,4.94809315 L13.4892494,4.94809315 L13.4892494,5.79657584 C13.4892494,6.44208967 13.8177036,7.02127604 14.3250224,7.35581239 C14.2607597,7.78458433 14.2272002,8.2231422 14.2272002,8.6696739 L14.2272002,9.39492544 C14.1793602,9.40108698 14.1322341,9.40942323 14.0854651,9.41848432 C14.0858222,9.30793875 14.0911773,9.19739318 14.1018878,9.08865981 C14.1400885,8.70229386 13.8623305,8.35760916 13.481752,8.31882757 C13.1011736,8.28004597 12.761295,8.56202789 12.7230943,8.94839374 C12.7073856,9.10859429 12.6991743,10.2582684 12.6991743,10.2582684 C12.3635799,10.6736299 12.1618661,11.2046111 12.1618661,11.7827102 L12.1618661,12.5688525 C12.1618661,12.8638824 12.203637,13.1491263 12.2807523,13.4195098 C11.5999239,14.8783492 10.2029226,15.8362902 8.61634625,15.9316131 L8.61634625,8.371382 Z" id="Shape"></path>
                    <path d="M21.0897436,11.2121213 C21.0897436,11.7143727 20.6852513,12.1212121 20.1858974,12.1212121 C19.6868567,12.1212121 19.2820513,11.7143727 19.2820513,11.2121213 C19.2820513,10.7101846 19.6868567,10.3030303 20.1858974,10.3030303 C20.6852513,10.3030303 21.0897436,10.7101846 21.0897436,11.2121213 Z" id="Shape"></path>
                    <path d="M27.7179487,11.2121213 C27.7179487,11.7143727 27.3131433,12.1212121 26.8141026,12.1212121 C26.3147487,12.1212121 25.9102564,11.7143727 25.9102564,11.2121213 C25.9102564,10.7101846 26.3147487,10.3030303 26.8141026,10.3030303 C27.3131433,10.3030303 27.7179487,10.7101846 27.7179487,11.2121213 Z" id="Shape"></path>
                    <path d="M26.6640761,12.7272727 L20.3360456,12.7272727 C20.0371664,12.7272727 19.7513609,12.8523421 19.551624,13.0711242 C19.3515238,13.2895502 19.2556501,13.5824475 19.2883344,13.874276 C19.5232977,15.9847761 21.3340041,17.5757576 23.4998793,17.5757576 C25.6661176,17.5757576 27.4768241,15.9847761 27.7117873,13.874276 C27.7441085,13.5824475 27.6482347,13.2895502 27.4484977,13.0707679 C27.2487608,12.8523421 26.9625922,12.7272727 26.6640761,12.7272727 Z M23.4998793,16.1928687 C22.1899679,16.1928687 21.0747093,15.321303 20.7605774,14.1101617 L26.2395443,14.1101617 C25.9254125,15.321303 24.8101539,16.1928687 23.4998793,16.1928687 Z" id="Shape"></path>
                    <path d="M44.9813292,28.8243845 L44.9813292,28.0639757 C44.9813292,23.283332 41.1064925,19.3939394 36.3432962,19.3939394 L34.2274837,19.3939394 C29.4642874,19.3939394 25.5890896,23.283332 25.5890896,28.0639757 L25.5890896,28.7888648 C24.4121937,28.9421789 23.5,29.9544865 23.5,31.177012 L23.5,31.9627918 C23.5,33.6079277 24.7949828,34.9547717 26.4156973,35.0312475 C27.8392393,38.0659958 30.8528007,40 34.2274837,40 L36.3432962,40 C39.7176181,40 42.7326239,38.0649085 44.1561659,35.0290728 C45.7407683,34.9319377 47,33.6075653 47,31.9932372 L47,31.3234396 C47,30.0962024 46.1329466,29.0683096 44.9813292,28.8243845 Z M34.2274837,20.8005867 L36.3432962,20.8005867 C40.0863235,20.8005867 43.174637,23.6678857 43.5429812,27.3289381 C41.9865463,25.9810068 39.9776258,25.2108121 37.8921476,25.2108121 L32.6786324,25.2108121 C30.5931541,25.2108121 28.5842336,25.9810068 27.0277988,27.3289381 C27.3957818,23.6678857 30.4840953,20.8005867 34.2274837,20.8005867 Z M45.5984864,31.9932372 C45.5984864,32.8946368 44.867937,33.6278622 43.969466,33.6278622 C43.9232424,33.6278622 43.8708798,33.6235129 43.8044334,33.6140893 C43.4848405,33.5669715 43.1757203,33.7463815 43.0547446,34.0468481 C41.9435729,36.8090381 39.3091894,38.5933527 36.3432962,38.5933527 L34.2274837,38.5933527 C31.2579793,38.5933527 28.6225125,36.8061385 27.5131464,34.0403241 C27.4048098,33.7703029 27.1451633,33.5992291 26.8634883,33.5992291 C26.8223204,33.5992291 26.7804303,33.6028535 26.7389013,33.6104649 C26.6738993,33.6224255 26.6157587,33.6278622 26.5605071,33.6278622 C25.6457857,33.6278622 24.9015137,32.8812264 24.9015137,31.9627918 L24.9015137,31.177012 C24.9015137,30.625009 25.3489435,30.1759402 25.898932,30.1759402 L26.2896657,30.1759402 C26.6767883,30.1759402 26.9906032,29.8609758 26.9906032,29.4724352 L26.9906032,29.3916102 C28.3581713,27.6507889 30.4671225,26.617822 32.6786324,26.617822 L37.8917864,26.617822 C40.1032962,26.617822 42.2122475,27.6507889 43.5798156,29.3916102 L43.5798156,29.4724352 C43.5798156,29.8609758 43.8936305,30.1759402 44.280753,30.1759402 L44.4548137,30.1759402 C45.0853323,30.1759402 45.5984864,30.6906115 45.5984864,31.3234396 L45.5984864,31.9932372 Z" id="Shape"></path>
                    <path d="M33.1410256,30.6060606 C33.1410256,31.1083121 32.7362904,31.5151515 32.237336,31.5151515 C31.7380686,31.5151515 31.3333333,31.1083121 31.3333333,30.6060606 C31.3333333,30.104124 31.7380686,29.6969697 32.237336,29.6969697 C32.7362904,29.6969697 33.1410256,30.104124 33.1410256,30.6060606 Z" id="Shape"></path>
                    <path d="M39.7692308,30.6060606 C39.7692308,31.1083121 39.3647385,31.5151515 38.8653846,31.5151515 C38.3660307,31.5151515 37.9615385,31.1083121 37.9615385,30.6060606 C37.9615385,30.104124 38.3660307,29.6969697 38.8653846,29.6969697 C39.3647385,29.6969697 39.7692308,30.104124 39.7692308,30.6060606 Z" id="Shape"></path>
                    <path d="M38.715249,32.7272727 L32.3872986,32.7272727 C32.0884232,32.7272727 31.8026214,32.8526891 31.6028869,33.071099 C31.4031525,33.2898652 31.3069168,33.582741 31.3396007,33.8745479 C31.5745609,35.9845368 33.3848814,37.5757576 35.5510922,37.5757576 C37.7173031,37.5757576 39.5279867,35.9845368 39.762947,33.8749042 C39.7956308,33.582741 39.6997583,33.2898652 39.5000238,33.0714553 C39.2999262,32.8526891 39.0141244,32.7272727 38.715249,32.7272727 Z M35.5510922,36.1929703 C34.2408343,36.1929703 33.1255897,35.3211124 32.8118251,34.1104163 L38.2907225,34.1104163 C37.9765947,35.3211124 36.8613502,36.1929703 35.5510922,36.1929703 Z" id="Shape"></path>
                    <path d="M21.4816904,28.8238561 L21.4816904,28.0638232 C21.4816904,23.2832636 17.6064925,19.3939394 12.8432962,19.3939394 L10.7274836,19.3939394 C5.96428735,19.3939394 2.08908949,23.2832636 2.08908949,28.0638232 L2.08908949,28.789062 C0.912193668,28.942011 0,29.9546632 0,31.1768048 L0,31.9625708 C0,33.6076777 1.29498266,34.9548604 2.91569722,35.0309725 C4.33923933,38.0660298 7.35280058,40 10.7274836,40 L12.8432962,40 C16.2179793,40 19.2326238,38.0645801 20.6561659,35.0287978 C22.2404072,34.9316644 23.5,33.6069528 23.5,31.9930156 L23.5,31.3232298 C23.5,30.0960142 22.6329465,29.0681395 21.4816904,28.8238561 Z M22.0984863,31.9930156 C22.0984863,32.8943994 21.3675758,33.6276119 20.469466,33.6276119 C20.4232424,33.6276119 20.3708797,33.6232626 20.3044333,33.6138392 C19.9855628,33.5667222 19.6753592,33.7461291 19.5547446,34.0465904 C18.4435728,36.8087318 15.8091893,38.593015 12.8429351,38.593015 L10.7271225,38.593015 C7.75797927,38.593015 5.12251246,36.8058323 4.01314634,34.0400665 C3.90480981,33.77005 3.64516332,33.5989792 3.36348823,33.5989792 C3.3223204,33.5989792 3.28079137,33.6026036 3.23890124,33.6102148 C3.17389932,33.6221753 3.11539764,33.6276119 3.06050713,33.6276119 C2.14578568,33.6276119 1.40151361,32.8809892 1.40151361,31.9625708 L1.40151361,31.1768048 C1.40151361,30.6248115 1.84894352,30.1757506 2.39893202,30.1757506 L2.78966574,30.1757506 C3.17678829,30.1757506 3.4906031,29.8607917 3.4906031,29.472258 L3.4906031,29.3914343 C4.85817131,27.6506437 6.96712252,26.6176949 9.17863232,26.6176949 L14.3921476,26.6176949 C14.8684671,26.6176949 15.3444257,26.664087 15.8070227,26.7561463 C16.1865617,26.8318958 16.555267,26.5839881 16.6307414,26.2030656 C16.7058547,25.8221431 16.4592085,25.4517312 16.0793085,25.3763441 C15.5275144,25.2665254 14.9594698,25.2107098 14.3921476,25.2107098 L9.17863232,25.2107098 C7.093154,25.2107098 5.08423359,25.9808909 3.52743757,27.3287986 C3.89578179,23.6678105 6.98409527,20.800562 10.7274836,20.800562 L12.8432962,20.800562 C16.5852401,20.800562 19.6728313,23.6659983 20.04262,27.3251743 C19.7197772,27.044647 19.3767114,26.7869535 19.0130618,26.554993 C18.6862466,26.3469536 18.2532616,26.444087 18.0456166,26.7720935 C17.8383327,27.1001001 17.9351133,27.5346635 18.2619285,27.742703 C18.959977,28.1874146 19.5695505,28.7430324 20.0798156,29.3939713 L20.0798156,29.472258 C20.0798156,29.8607917 20.3936304,30.1753881 20.7807529,30.1753881 L20.9548137,30.1753881 C21.5853323,30.1753881 22.0984863,30.6904128 22.0984863,31.3232298 L22.0984863,31.9930156 Z" id="Shape"></path>
                    <path d="M9.03846154,30.6060606 C9.03846154,31.1083121 8.63372622,31.5151515 8.13477188,31.5151515 C7.63550447,31.5151515 7.23076923,31.1083121 7.23076923,30.6060606 C7.23076923,30.104124 7.63550447,29.6969697 8.13477188,29.6969697 C8.63372622,29.6969697 9.03846154,30.104124 9.03846154,30.6060606 Z" id="Shape"></path>
                    <path d="M15.6666667,30.6060606 C15.6666667,31.1083121 15.2621743,31.5151515 14.7628205,31.5151515 C14.2637797,31.5151515 13.8589744,31.1083121 13.8589744,30.6060606 C13.8589744,30.104124 14.2637797,29.6969697 14.7628205,29.6969697 C15.2621743,29.6969697 15.6666667,30.104124 15.6666667,30.6060606 Z" id="Shape"></path>
                    <path d="M14.6127941,32.7272727 L8.28476353,32.7272727 C7.98588435,32.7272727 7.70007887,32.8526891 7.50034194,33.071099 C7.30024178,33.2898652 7.20436803,33.582741 7.23705231,33.8745479 C7.47201556,35.9845368 9.2827221,37.5757576 11.4485973,37.5757576 C13.6148355,37.5757576 15.425542,35.9845368 15.6605053,33.8745479 C15.6928264,33.582741 15.5969526,33.2898652 15.3972157,33.071099 C15.1974788,32.8526891 14.9116733,32.7272727 14.6127941,32.7272727 Z M11.4485973,36.1929703 C10.1386858,36.1929703 9.02342714,35.3211124 8.70929537,34.1104163 L14.1882623,34.1104163 C13.8741304,35.3214686 12.7588718,36.1929703 11.4485973,36.1929703 Z" id="Shape"></path>
                </g>
                <g id="boy-copy" transform="translate(0.000000, 45.000000)" fill="#FFFFFF">
                    <path d="M8.3546539,17.3462343 C10.2914624,17.3462343 12.0504773,16.3730706 13.1011736,14.7913625 C13.6120627,15.2860994 14.292891,15.6014261 15.0440514,15.6373081 C16.4517631,18.6720564 19.4310566,20.6060606 22.7673656,20.6060606 L24.8591188,20.6060606 C28.1950707,20.6060606 31.1757923,18.6709691 32.5831469,15.6351334 C33.3225258,15.589103 33.9901447,15.2694269 34.4892522,14.7750525 C35.5374494,16.367634 37.2986063,17.3462343 39.2479104,17.3462343 C39.8676891,17.3462343 40.3717949,16.8344626 40.3717949,16.2052588 L40.3717949,8.371382 C40.3717949,5.70813937 38.2379139,3.54180825 35.6145647,3.54180825 L33.9676527,3.54180825 C33.6884666,2.87599762 33.0376275,2.40808166 32.2811119,2.40808166 L31.9501586,2.40808166 C31.6181343,2.40808166 31.2964634,2.50195483 31.0176344,2.66976668 C29.4621184,1.02535564 27.27647,0 24.8591188,0 L22.7673656,0 C20.3453731,0 18.1561547,1.02898013 16.6002815,2.67846535 C16.3185964,2.50521681 15.9915703,2.40808166 15.6520487,2.40808166 L15.3214524,2.40808166 C14.5649368,2.40808166 13.9140977,2.87599762 13.6349117,3.54180825 L11.9879996,3.54180825 C9.36500752,3.54180825 7.23076942,5.70850188 7.23076942,8.371382 L7.23076942,16.2052588 C7.23041243,16.8344626 7.73487516,17.3462343 8.3546539,17.3462343 Z M32.39857,14.2339228 C32.352872,14.2339228 32.3011048,14.229211 32.235414,14.2197874 C31.9194554,14.1726697 31.6134931,14.3524422 31.49425,14.6525463 C30.3957136,17.4147363 27.7912863,19.1994133 24.8587618,19.1994133 L22.7670085,19.1994133 C19.8316279,19.1994133 17.2261295,17.4121991 16.1293782,14.6460222 C16.0222737,14.3760011 15.7655796,14.2052897 15.4871076,14.2052897 C15.4464078,14.2052897 15.404994,14.2089141 15.3639372,14.216163 C15.2996745,14.2281237 15.241838,14.2339228 15.1875716,14.2339228 C14.2828947,14.2339228 13.5474429,13.4869246 13.5474429,12.5688525 L13.5474429,11.7827102 C13.5474429,11.2307071 13.989785,10.7816384 14.5335194,10.7816384 L14.9198101,10.7816384 C15.3025306,10.7816384 15.612777,10.4670365 15.612777,10.0781335 L15.612777,9.99767077 C16.9644373,8.2564871 19.0497643,7.22352006 21.2357695,7.22352006 L26.3900009,7.22352006 C28.5763631,7.22352006 30.661333,8.2564871 32.0133504,9.99767077 L32.0133504,10.0781335 C32.0133504,10.4666741 32.3235967,10.7816384 32.7063172,10.7816384 L32.8783987,10.7816384 C33.5017476,10.7816384 34.0087094,11.2963097 34.0087094,11.9295002 L34.0087094,12.5989354 C34.0090665,13.500335 33.2864673,14.2339228 32.39857,14.2339228 Z M38.9862181,8.371382 L38.9862181,15.9316131 C37.3760786,15.8355653 35.9680099,14.8566026 35.297535,13.3662306 C35.3603697,13.1208555 35.3946432,12.8638824 35.3946432,12.5989354 L35.3946432,11.9291378 C35.3946432,11.3637243 35.2107803,10.8414417 34.903033,10.417744 C34.903033,10.417744 34.8951787,9.10786935 34.879113,8.94658154 C34.8412694,8.5602156 34.5010337,8.27750893 34.1208123,8.31701537 C33.7402338,8.35543444 33.4624759,8.70011924 33.5003195,9.08684761 C33.511744,9.20138009 33.5174562,9.31844971 33.5174562,9.43406946 L33.5174562,9.4608904 C33.4781846,9.45037944 33.4392699,9.43841879 33.3992842,9.43008254 L33.3992842,8.6696739 C33.3992842,8.21770551 33.3646537,7.77371095 33.2989629,7.34022725 C33.7934292,7.00170408 34.113672,6.42831673 34.113672,5.79657584 L34.113672,4.94809315 L35.6145647,4.94809315 C37.4735439,4.94809315 38.9862181,6.48377073 38.9862181,8.371382 Z M31.9501586,3.81472898 L32.2811119,3.81472898 C32.5274525,3.81472898 32.7277382,4.01806045 32.7277382,4.26778473 L32.7277382,5.30038926 C32.5096018,4.77738174 32.2421973,4.28047022 31.9319508,3.81581634 C31.9380201,3.81545392 31.9440894,3.81472898 31.9501586,3.81472898 Z M22.7673656,1.40664732 L24.8591188,1.40664732 C28.5595834,1.40664732 31.6127791,4.27358384 31.9769348,7.93463633 C30.4381984,6.5870675 28.4521218,5.81687274 26.3903579,5.81687274 L21.2361265,5.81687274 C19.1740055,5.81687274 17.1879289,6.5870675 15.6491925,7.93463633 C16.0133482,4.27358384 19.0665439,1.40664732 22.7673656,1.40664732 Z M15.3210954,3.81472898 L15.6520487,3.81472898 C15.6659723,3.81472898 15.6795389,3.81617876 15.6931054,3.81726612 C15.3714346,4.29895492 15.0968898,4.81543848 14.8748261,5.35910523 L14.8748261,4.26778473 C14.8748261,4.01806045 15.0751118,3.81472898 15.3210954,3.81472898 Z M8.61634625,8.371382 C8.61634625,6.48377073 10.1286634,4.94809315 11.9879996,4.94809315 L13.4892494,4.94809315 L13.4892494,5.79657584 C13.4892494,6.44208967 13.8177036,7.02127604 14.3250224,7.35581239 C14.2607597,7.78458433 14.2272002,8.2231422 14.2272002,8.6696739 L14.2272002,9.39492544 C14.1793602,9.40108698 14.1322341,9.40942323 14.0854651,9.41848432 C14.0858222,9.30793875 14.0911773,9.19739318 14.1018878,9.08865981 C14.1400885,8.70229386 13.8623305,8.35760916 13.481752,8.31882757 C13.1011736,8.28004597 12.761295,8.56202789 12.7230943,8.94839374 C12.7073856,9.10859429 12.6991743,10.2582684 12.6991743,10.2582684 C12.3635799,10.6736299 12.1618661,11.2046111 12.1618661,11.7827102 L12.1618661,12.5688525 C12.1618661,12.8638824 12.203637,13.1491263 12.2807523,13.4195098 C11.5999239,14.8783492 10.2029226,15.8362902 8.61634625,15.9316131 L8.61634625,8.371382 Z" id="Shape"></path>
                    <path d="M21.0897436,11.2121213 C21.0897436,11.7143727 20.6852513,12.1212121 20.1858974,12.1212121 C19.6868567,12.1212121 19.2820513,11.7143727 19.2820513,11.2121213 C19.2820513,10.7101846 19.6868567,10.3030303 20.1858974,10.3030303 C20.6852513,10.3030303 21.0897436,10.7101846 21.0897436,11.2121213 Z" id="Shape"></path>
                    <path d="M27.7179487,11.2121213 C27.7179487,11.7143727 27.3131433,12.1212121 26.8141026,12.1212121 C26.3147487,12.1212121 25.9102564,11.7143727 25.9102564,11.2121213 C25.9102564,10.7101846 26.3147487,10.3030303 26.8141026,10.3030303 C27.3131433,10.3030303 27.7179487,10.7101846 27.7179487,11.2121213 Z" id="Shape"></path>
                    <path d="M26.6640761,12.7272727 L20.3360456,12.7272727 C20.0371664,12.7272727 19.7513609,12.8523421 19.551624,13.0711242 C19.3515238,13.2895502 19.2556501,13.5824475 19.2883344,13.874276 C19.5232977,15.9847761 21.3340041,17.5757576 23.4998793,17.5757576 C25.6661176,17.5757576 27.4768241,15.9847761 27.7117873,13.874276 C27.7441085,13.5824475 27.6482347,13.2895502 27.4484977,13.0707679 C27.2487608,12.8523421 26.9625922,12.7272727 26.6640761,12.7272727 Z M23.4998793,16.1928687 C22.1899679,16.1928687 21.0747093,15.321303 20.7605774,14.1101617 L26.2395443,14.1101617 C25.9254125,15.321303 24.8101539,16.1928687 23.4998793,16.1928687 Z" id="Shape"></path>
                    <path d="M44.9813292,28.8243845 L44.9813292,28.0639757 C44.9813292,23.283332 41.1064925,19.3939394 36.3432962,19.3939394 L34.2274837,19.3939394 C29.4642874,19.3939394 25.5890896,23.283332 25.5890896,28.0639757 L25.5890896,28.7888648 C24.4121937,28.9421789 23.5,29.9544865 23.5,31.177012 L23.5,31.9627918 C23.5,33.6079277 24.7949828,34.9547717 26.4156973,35.0312475 C27.8392393,38.0659958 30.8528007,40 34.2274837,40 L36.3432962,40 C39.7176181,40 42.7326239,38.0649085 44.1561659,35.0290728 C45.7407683,34.9319377 47,33.6075653 47,31.9932372 L47,31.3234396 C47,30.0962024 46.1329466,29.0683096 44.9813292,28.8243845 Z M34.2274837,20.8005867 L36.3432962,20.8005867 C40.0863235,20.8005867 43.174637,23.6678857 43.5429812,27.3289381 C41.9865463,25.9810068 39.9776258,25.2108121 37.8921476,25.2108121 L32.6786324,25.2108121 C30.5931541,25.2108121 28.5842336,25.9810068 27.0277988,27.3289381 C27.3957818,23.6678857 30.4840953,20.8005867 34.2274837,20.8005867 Z M45.5984864,31.9932372 C45.5984864,32.8946368 44.867937,33.6278622 43.969466,33.6278622 C43.9232424,33.6278622 43.8708798,33.6235129 43.8044334,33.6140893 C43.4848405,33.5669715 43.1757203,33.7463815 43.0547446,34.0468481 C41.9435729,36.8090381 39.3091894,38.5933527 36.3432962,38.5933527 L34.2274837,38.5933527 C31.2579793,38.5933527 28.6225125,36.8061385 27.5131464,34.0403241 C27.4048098,33.7703029 27.1451633,33.5992291 26.8634883,33.5992291 C26.8223204,33.5992291 26.7804303,33.6028535 26.7389013,33.6104649 C26.6738993,33.6224255 26.6157587,33.6278622 26.5605071,33.6278622 C25.6457857,33.6278622 24.9015137,32.8812264 24.9015137,31.9627918 L24.9015137,31.177012 C24.9015137,30.625009 25.3489435,30.1759402 25.898932,30.1759402 L26.2896657,30.1759402 C26.6767883,30.1759402 26.9906032,29.8609758 26.9906032,29.4724352 L26.9906032,29.3916102 C28.3581713,27.6507889 30.4671225,26.617822 32.6786324,26.617822 L37.8917864,26.617822 C40.1032962,26.617822 42.2122475,27.6507889 43.5798156,29.3916102 L43.5798156,29.4724352 C43.5798156,29.8609758 43.8936305,30.1759402 44.280753,30.1759402 L44.4548137,30.1759402 C45.0853323,30.1759402 45.5984864,30.6906115 45.5984864,31.3234396 L45.5984864,31.9932372 Z" id="Shape"></path>
                    <path d="M33.1410256,30.6060606 C33.1410256,31.1083121 32.7362904,31.5151515 32.237336,31.5151515 C31.7380686,31.5151515 31.3333333,31.1083121 31.3333333,30.6060606 C31.3333333,30.104124 31.7380686,29.6969697 32.237336,29.6969697 C32.7362904,29.6969697 33.1410256,30.104124 33.1410256,30.6060606 Z" id="Shape"></path>
                    <path d="M39.7692308,30.6060606 C39.7692308,31.1083121 39.3647385,31.5151515 38.8653846,31.5151515 C38.3660307,31.5151515 37.9615385,31.1083121 37.9615385,30.6060606 C37.9615385,30.104124 38.3660307,29.6969697 38.8653846,29.6969697 C39.3647385,29.6969697 39.7692308,30.104124 39.7692308,30.6060606 Z" id="Shape"></path>
                    <path d="M38.715249,32.7272727 L32.3872986,32.7272727 C32.0884232,32.7272727 31.8026214,32.8526891 31.6028869,33.071099 C31.4031525,33.2898652 31.3069168,33.582741 31.3396007,33.8745479 C31.5745609,35.9845368 33.3848814,37.5757576 35.5510922,37.5757576 C37.7173031,37.5757576 39.5279867,35.9845368 39.762947,33.8749042 C39.7956308,33.582741 39.6997583,33.2898652 39.5000238,33.0714553 C39.2999262,32.8526891 39.0141244,32.7272727 38.715249,32.7272727 Z M35.5510922,36.1929703 C34.2408343,36.1929703 33.1255897,35.3211124 32.8118251,34.1104163 L38.2907225,34.1104163 C37.9765947,35.3211124 36.8613502,36.1929703 35.5510922,36.1929703 Z" id="Shape"></path>
                    <path d="M21.4816904,28.8238561 L21.4816904,28.0638232 C21.4816904,23.2832636 17.6064925,19.3939394 12.8432962,19.3939394 L10.7274836,19.3939394 C5.96428735,19.3939394 2.08908949,23.2832636 2.08908949,28.0638232 L2.08908949,28.789062 C0.912193668,28.942011 0,29.9546632 0,31.1768048 L0,31.9625708 C0,33.6076777 1.29498266,34.9548604 2.91569722,35.0309725 C4.33923933,38.0660298 7.35280058,40 10.7274836,40 L12.8432962,40 C16.2179793,40 19.2326238,38.0645801 20.6561659,35.0287978 C22.2404072,34.9316644 23.5,33.6069528 23.5,31.9930156 L23.5,31.3232298 C23.5,30.0960142 22.6329465,29.0681395 21.4816904,28.8238561 Z M22.0984863,31.9930156 C22.0984863,32.8943994 21.3675758,33.6276119 20.469466,33.6276119 C20.4232424,33.6276119 20.3708797,33.6232626 20.3044333,33.6138392 C19.9855628,33.5667222 19.6753592,33.7461291 19.5547446,34.0465904 C18.4435728,36.8087318 15.8091893,38.593015 12.8429351,38.593015 L10.7271225,38.593015 C7.75797927,38.593015 5.12251246,36.8058323 4.01314634,34.0400665 C3.90480981,33.77005 3.64516332,33.5989792 3.36348823,33.5989792 C3.3223204,33.5989792 3.28079137,33.6026036 3.23890124,33.6102148 C3.17389932,33.6221753 3.11539764,33.6276119 3.06050713,33.6276119 C2.14578568,33.6276119 1.40151361,32.8809892 1.40151361,31.9625708 L1.40151361,31.1768048 C1.40151361,30.6248115 1.84894352,30.1757506 2.39893202,30.1757506 L2.78966574,30.1757506 C3.17678829,30.1757506 3.4906031,29.8607917 3.4906031,29.472258 L3.4906031,29.3914343 C4.85817131,27.6506437 6.96712252,26.6176949 9.17863232,26.6176949 L14.3921476,26.6176949 C14.8684671,26.6176949 15.3444257,26.664087 15.8070227,26.7561463 C16.1865617,26.8318958 16.555267,26.5839881 16.6307414,26.2030656 C16.7058547,25.8221431 16.4592085,25.4517312 16.0793085,25.3763441 C15.5275144,25.2665254 14.9594698,25.2107098 14.3921476,25.2107098 L9.17863232,25.2107098 C7.093154,25.2107098 5.08423359,25.9808909 3.52743757,27.3287986 C3.89578179,23.6678105 6.98409527,20.800562 10.7274836,20.800562 L12.8432962,20.800562 C16.5852401,20.800562 19.6728313,23.6659983 20.04262,27.3251743 C19.7197772,27.044647 19.3767114,26.7869535 19.0130618,26.554993 C18.6862466,26.3469536 18.2532616,26.444087 18.0456166,26.7720935 C17.8383327,27.1001001 17.9351133,27.5346635 18.2619285,27.742703 C18.959977,28.1874146 19.5695505,28.7430324 20.0798156,29.3939713 L20.0798156,29.472258 C20.0798156,29.8607917 20.3936304,30.1753881 20.7807529,30.1753881 L20.9548137,30.1753881 C21.5853323,30.1753881 22.0984863,30.6904128 22.0984863,31.3232298 L22.0984863,31.9930156 Z" id="Shape"></path>
                    <path d="M9.03846154,30.6060606 C9.03846154,31.1083121 8.63372622,31.5151515 8.13477188,31.5151515 C7.63550447,31.5151515 7.23076923,31.1083121 7.23076923,30.6060606 C7.23076923,30.104124 7.63550447,29.6969697 8.13477188,29.6969697 C8.63372622,29.6969697 9.03846154,30.104124 9.03846154,30.6060606 Z" id="Shape"></path>
                    <path d="M15.6666667,30.6060606 C15.6666667,31.1083121 15.2621743,31.5151515 14.7628205,31.5151515 C14.2637797,31.5151515 13.8589744,31.1083121 13.8589744,30.6060606 C13.8589744,30.104124 14.2637797,29.6969697 14.7628205,29.6969697 C15.2621743,29.6969697 15.6666667,30.104124 15.6666667,30.6060606 Z" id="Shape"></path>
                    <path d="M14.6127941,32.7272727 L8.28476353,32.7272727 C7.98588435,32.7272727 7.70007887,32.8526891 7.50034194,33.071099 C7.30024178,33.2898652 7.20436803,33.582741 7.23705231,33.8745479 C7.47201556,35.9845368 9.2827221,37.5757576 11.4485973,37.5757576 C13.6148355,37.5757576 15.425542,35.9845368 15.6605053,33.8745479 C15.6928264,33.582741 15.5969526,33.2898652 15.3972157,33.071099 C15.1974788,32.8526891 14.9116733,32.7272727 14.6127941,32.7272727 Z M11.4485973,36.1929703 C10.1386858,36.1929703 9.02342714,35.3211124 8.70929537,34.1104163 L14.1882623,34.1104163 C13.8741304,35.3214686 12.7588718,36.1929703 11.4485973,36.1929703 Z" id="Shape"></path>
                </g>
            </g>
        </g>
    </g>
</svg>