<svg xmlns="http://www.w3.org/2000/svg" width="18" height="16" viewBox="0 0 18 16">
    <g fill="#FFF" fill-rule="nonzero">
        <path d="M10.5 3.81c0 2.104-1.679 3.809-3.75 3.809C4.679 7.619 3 5.914 3 3.809 3 1.707 4.679 0 6.75 0c2.071 0 3.75 1.706 3.75 3.81zM9.938 9.143H3.562C1.598 9.143 0 10.766 0 12.762v2.667c0 .315.252.571.563.571h12.374c.311 0 .563-.256.563-.571v-2.667c0-1.996-1.598-3.62-3.562-3.62zM17.82 6.438l-2.624-2.476a.557.557 0 0 0-.383-.152c-.372 0-.563.322-.563.571v1.714h-3a.756.756 0 0 0-.75.762c0 .42.335.762.75.762h3v1.714a.56.56 0 1 0 .946.42l2.625-2.477a.58.58 0 0 0 0-.838z"/>
    </g>
</svg>
