<?xml version="1.0" encoding="UTF-8"?>
<svg width="18px" height="16px" viewBox="0 0 18 16" version="1.1" xmlns="http://www.w3.org/2000/svg" xmlns:xlink="http://www.w3.org/1999/xlink">
    <!-- Generator: Sketch 49 (51002) - http://www.bohemiancoding.com/sketch -->
    <title>user</title>
    <desc>Created with Sketch.</desc>
    <defs></defs>
    <g id="chame-UI" stroke="none" stroke-width="1" fill="none" fill-rule="evenodd">
        <g id="3.1-ChaMe-Mobile" transform="translate(-220.000000, -60.000000)" fill="#1CD1FF" fill-rule="nonzero">
            <g id="Group-3" transform="translate(220.000000, 59.000000)">
                <g id="user" transform="translate(0.000000, 1.000000)">
                    <path d="M10.5000458,3.80957032 C10.5000458,5.91350446 8.82106017,7.61900111 6.75,7.61900111 C4.67893983,7.61900111 2.99995421,5.91350446 2.99995421,3.80957032 C2.99995421,1.70563614 4.67893983,0 6.75,0 C8.82106017,0 10.5000458,1.70563614 10.5000458,3.80957032 Z" id="Shape"></path>
                    <path d="M9.93754579,9.14285714 L3.56245421,9.14285714 C1.5982361,9.14285714 2.84217094e-14,10.7664621 2.84217094e-14,12.7618582 L2.84217094e-14,15.4285714 C2.84217094e-14,15.7440011 0.25199891,16 0.5625,16 L12.9375,16 C13.2480011,16 13.5,15.7440011 13.5,15.4285714 L13.5,12.7618582 C13.5,10.7664621 11.9017639,9.14285714 9.93754579,9.14285714 Z" id="Shape"></path>
                    <path d="M17.8207855,6.43805804 L15.1957397,3.96191407 C15.0899963,3.86202568 14.9519806,3.81026786 14.8132782,3.81026786 C14.4412537,3.81026786 14.2499542,4.13183593 14.2499542,4.38099889 L14.2499542,6.09528461 L11.25,6.09528461 C10.8352661,6.09528461 10.5000458,6.43652343 10.5000458,6.85714286 C10.5000458,7.27776229 10.8352661,7.61900111 11.25,7.61900111 L14.2499542,7.61900111 L14.2499542,9.33328682 C14.2499542,9.65025111 14.5034638,9.90471539 14.8124542,9.90471539 C14.9519806,9.90471539 15.0893097,9.85226004 15.1957397,9.75237164 L17.8207855,7.27622768 C17.9347687,7.16796875 18,7.015625 18,6.85714286 C18,6.69866071 17.9347687,6.54631696 17.8207855,6.43805804 Z" id="Shape"></path>
                </g>
            </g>
        </g>
    </g>
</svg>